<?xml version="1.0" encoding="UTF-8"?>
<svg width="1105px" height="342px" viewBox="0 0 1105 342" version="1.1" xmlns="http://www.w3.org/2000/svg" xmlns:xlink="http://www.w3.org/1999/xlink">
    <!-- Generator: Sketch 52.5 (67469) - http://www.bohemiancoding.com/sketch -->
    <title>Group 6@3x</title>
    <desc>Created with Sketch.</desc>
    <g id="Page-1" stroke="none" stroke-width="1" fill="none" fill-rule="evenodd">
        <g id="Desktop---HOW-IT-WORKS" transform="translate(-168.000000, -2105.000000)">
            <g id="Group-6" transform="translate(168.000000, 2105.000000)">
                <g id="iconfinder_vector_301_21_1005108" transform="translate(811.000000, 0.000000)">
                    <circle id="Oval" fill="#1201E8" cx="60" cy="60" r="60"></circle>
                    <path d="M86.2381935,48.2012903 C86.1987097,48.1625806 86.1677419,48.123871 86.1220645,48.0859355 L85.6033548,47.5587097 C85.556129,47.52 85.5181935,47.4812903 85.4794839,47.4433548 C83.4743226,45.6162581 80.8188387,44.5091613 77.8916129,44.5091613 C76.1814194,44.5091613 74.5548387,44.8962581 73.100129,45.5852903 C70.700129,37.6343226 63.3220645,31.8510968 54.5969032,31.8510968 C43.9215484,31.8510968 35.2652903,40.5073548 35.2652903,51.1834839 C35.2652903,51.3685161 35.2815484,51.5543226 35.2815484,51.7331613 C35.2815484,51.7331613 35.2738065,51.7331613 35.2652903,51.7331613 C29.0477419,51.7316129 24,56.7793548 24,63.003871 C24,65.7917419 25.0149677,68.3380645 26.6872258,70.3045161 L27.9096774,71.5354839 L74.5811613,118.206194 C94.536,113.22271 110.522323,98.2498065 116.94271,78.9050323 L86.2381935,48.2012903 Z" id="Path" fill="#E808F2"></path>
                    <path d="M96,67.0451613 C96,71.04 92.763871,74.2683871 88.7767742,74.2683871 L35.2645161,74.2683871 C32.4619355,74.2683871 29.883871,73.2387097 27.9096774,71.5362581 C27.4691613,71.1569032 27.0580645,70.7458065 26.6872258,70.3045161 C25.0149677,68.3380645 24,65.7909677 24,63.003871 C24,56.7793548 29.0477419,51.7316129 35.2645161,51.7316129 C35.2730323,51.7316129 35.2807742,51.7316129 35.2807742,51.7316129 C35.2807742,51.5535484 35.2645161,51.3669677 35.2645161,51.1819355 C35.2645161,40.5058065 43.9207742,31.8495484 54.596129,31.8495484 C63.3220645,31.8495484 70.700129,37.6335484 73.0993548,45.5837419 C74.5548387,44.8947097 76.1806452,44.5076129 77.8908387,44.5076129 C80.8180645,44.5076129 83.4735484,45.6147097 85.4787097,47.4418065 C85.5174194,47.4805161 85.556129,47.5192258 85.6025806,47.5571613 L86.1212903,48.0843871 C86.1677419,48.1230968 86.1987097,48.1618065 86.2374194,48.1997419 C88.0567742,50.2049032 89.1630968,52.8611613 89.1630968,55.7790968 C89.1630968,57.212129 88.892129,58.5816774 88.4043871,59.835871 C88.5282581,59.828129 88.652129,59.8196129 88.776,59.8196129 C92.763871,59.8219355 96,63.0580645 96,67.0451613 Z" id="Path" fill="#FFFFFF"></path>
                </g>
                <g id="server" transform="translate(811.000000, 223.000000)" fill-rule="nonzero">
                    <path d="M0,47.4894118 C0,45.5323769 0.631561112,43.7322265 1.67946984,42.2438341 L119.000997,42.2438341 C120.048906,43.7322265 120.680467,45.5303655 120.680467,47.4894118 L120.680467,71.1910555 C120.680467,73.1480905 120.048906,74.9482408 118.998986,76.4346218 L1.67946984,76.4346218 C0.631561112,74.9462294 0,73.1480905 0,71.1890442 L0,47.4894118 Z M104.589738,60.3459042 C103.479478,60.3459042 102.578397,61.246985 102.578397,62.3572453 C102.578397,63.4675056 103.479478,64.3685865 104.589738,64.3685865 C105.699999,64.3685865 106.601079,63.4675056 106.601079,62.3572453 C106.601079,61.246985 105.699999,60.3459042 104.589738,60.3459042 Z M100.567056,54.3118808 C99.4567958,54.3118808 98.555715,55.2129617 98.555715,56.323222 C98.555715,57.4334823 99.4567958,58.3345631 100.567056,58.3345631 C101.677316,58.3345631 102.578397,57.4334823 102.578397,56.323222 C102.578397,55.2129617 101.677316,54.3118808 100.567056,54.3118808 Z M96.5443738,60.3459042 C95.4341135,60.3459042 94.5330327,61.246985 94.5330327,62.3572453 C94.5330327,63.4675056 95.4341135,64.3685865 96.5443738,64.3685865 C97.6546341,64.3685865 98.555715,63.4675056 98.555715,62.3572453 C98.555715,61.246985 97.6546341,60.3459042 96.5443738,60.3459042 Z M92.5216916,54.3118808 C91.4114313,54.3118808 90.5103505,55.2129617 90.5103505,56.323222 C90.5103505,57.4334823 91.4114313,58.3345631 92.5216916,58.3345631 C93.6319519,58.3345631 94.5330327,57.4334823 94.5330327,56.323222 C94.5330327,55.2129617 93.6319519,54.3118808 92.5216916,54.3118808 Z M88.4990094,60.3459042 C87.3887491,60.3459042 86.4876682,61.246985 86.4876682,62.3572453 C86.4876682,63.4675056 87.3887491,64.3685865 88.4990094,64.3685865 C89.6092697,64.3685865 90.5103505,63.4675056 90.5103505,62.3572453 C90.5103505,61.246985 89.6092697,60.3459042 88.4990094,60.3459042 Z M84.4763271,54.3118808 C83.3660668,54.3118808 82.464986,55.2129617 82.464986,56.323222 C82.464986,57.4334823 83.3660668,58.3345631 84.4763271,58.3345631 C85.5865874,58.3345631 86.4876682,57.4334823 86.4876682,56.323222 C86.4876682,55.2129617 85.5865874,54.3118808 84.4763271,54.3118808 Z M80.4536449,60.3459042 C79.3433846,60.3459042 78.4423038,61.246985 78.4423038,62.3572453 C78.4423038,63.4675056 79.3433846,64.3685865 80.4536449,64.3685865 C81.5639052,64.3685865 82.464986,63.4675056 82.464986,62.3572453 C82.464986,61.246985 81.5639052,60.3459042 80.4536449,60.3459042 Z M76.4309626,54.3118808 C75.3207023,54.3118808 74.4196215,55.2129617 74.4196215,56.323222 C74.4196215,57.4334823 75.3207023,58.3345631 76.4309626,58.3345631 C77.5412229,58.3345631 78.4423038,57.4334823 78.4423038,56.323222 C78.4423038,55.2129617 77.5412229,54.3118808 76.4309626,54.3118808 Z M72.4082804,60.3459042 C71.2980201,60.3459042 70.3969393,61.246985 70.3969393,62.3572453 C70.3969393,63.4675056 71.2980201,64.3685865 72.4082804,64.3685865 C73.5185407,64.3685865 74.4196215,63.4675056 74.4196215,62.3572453 C74.4196215,61.246985 73.5185407,60.3459042 72.4082804,60.3459042 Z M68.3855981,54.3118808 C67.2753378,54.3118808 66.374257,55.2129617 66.374257,56.323222 C66.374257,57.4334823 67.2753378,58.3345631 68.3855981,58.3345631 C69.4958584,58.3345631 70.3969393,57.4334823 70.3969393,56.323222 C70.3969393,55.2129617 69.4958584,54.3118808 68.3855981,54.3118808 Z M21.1190818,50.2891986 C16.1289445,50.2891986 12.0680467,54.3500963 12.0680467,59.3402337 C12.0680467,64.330371 16.1289445,68.3912687 21.1190818,68.3912687 C26.1092191,68.3912687 30.1701168,64.330371 30.1701168,59.3402337 C30.1701168,54.3500963 26.1092191,50.2891986 21.1190818,50.2891986 Z M1.67946984,80.4593154 L118.998986,80.4593154 C120.046895,81.9477079 120.678456,83.7458468 120.678456,85.7048931 L120.678456,109.406537 C120.678456,114.517355 116.521014,118.674797 111.410196,118.674797 L9.26825989,118.674797 C4.1574421,118.674797 0,114.517355 0,109.404526 L0,85.7048931 C0,83.7478582 0.631561112,81.9477079 1.67946984,80.4593154 Z M21.1190818,106.60675 C26.1092191,106.60675 30.1701168,102.545852 30.1701168,97.555715 C30.1701168,92.5655776 26.1092191,88.5046799 21.1190818,88.5046799 C16.1289445,88.5046799 12.0680467,92.5655776 12.0680467,97.555715 C12.0680467,102.545852 16.1289445,106.60675 21.1190818,106.60675 Z M68.3855981,96.5500444 C69.4958584,96.5500444 70.3969393,95.6489636 70.3969393,94.5387033 C70.3969393,93.428443 69.4958584,92.5273622 68.3855981,92.5273622 C67.2753378,92.5273622 66.374257,93.428443 66.374257,94.5387033 C66.374257,95.6489636 67.2753378,96.5500444 68.3855981,96.5500444 Z M72.4082804,102.584068 C73.5185407,102.584068 74.4196215,101.682987 74.4196215,100.572727 C74.4196215,99.4624664 73.5185407,98.5613855 72.4082804,98.5613855 C71.2980201,98.5613855 70.3969393,99.4624664 70.3969393,100.572727 C70.3969393,101.682987 71.2980201,102.584068 72.4082804,102.584068 Z M76.4309626,96.5500444 C77.5412229,96.5500444 78.4423038,95.6489636 78.4423038,94.5387033 C78.4423038,93.428443 77.5412229,92.5273622 76.4309626,92.5273622 C75.3207023,92.5273622 74.4196215,93.428443 74.4196215,94.5387033 C74.4196215,95.6489636 75.3207023,96.5500444 76.4309626,96.5500444 Z M80.4536449,102.584068 C81.5639052,102.584068 82.464986,101.682987 82.464986,100.572727 C82.464986,99.4624664 81.5639052,98.5613855 80.4536449,98.5613855 C79.3433846,98.5613855 78.4423038,99.4624664 78.4423038,100.572727 C78.4423038,101.682987 79.3433846,102.584068 80.4536449,102.584068 Z M84.4763271,96.5500444 C85.5865874,96.5500444 86.4876682,95.6489636 86.4876682,94.5387033 C86.4876682,93.428443 85.5865874,92.5273622 84.4763271,92.5273622 C83.3660668,92.5273622 82.464986,93.428443 82.464986,94.5387033 C82.464986,95.6489636 83.3660668,96.5500444 84.4763271,96.5500444 Z M88.4990094,102.584068 C89.6092697,102.584068 90.5103505,101.682987 90.5103505,100.572727 C90.5103505,99.4624664 89.6092697,98.5613855 88.4990094,98.5613855 C87.3887491,98.5613855 86.4876682,99.4624664 86.4876682,100.572727 C86.4876682,101.682987 87.3887491,102.584068 88.4990094,102.584068 Z M92.5216916,96.5500444 C93.6319519,96.5500444 94.5330327,95.6489636 94.5330327,94.5387033 C94.5330327,93.428443 93.6319519,92.5273622 92.5216916,92.5273622 C91.4114313,92.5273622 90.5103505,93.428443 90.5103505,94.5387033 C90.5103505,95.6489636 91.4114313,96.5500444 92.5216916,96.5500444 Z M96.5443738,102.584068 C97.6546341,102.584068 98.555715,101.682987 98.555715,100.572727 C98.555715,99.4624664 97.6546341,98.5613855 96.5443738,98.5613855 C95.4341135,98.5613855 94.5330327,99.4624664 94.5330327,100.572727 C94.5330327,101.682987 95.4341135,102.584068 96.5443738,102.584068 Z M100.567056,96.5500444 C101.677316,96.5500444 102.578397,95.6489636 102.578397,94.5387033 C102.578397,93.428443 101.677316,92.5273622 100.567056,92.5273622 C99.4567958,92.5273622 98.555715,93.428443 98.555715,94.5387033 C98.555715,95.6489636 99.4567958,96.5500444 100.567056,96.5500444 Z M104.589738,102.584068 C105.699999,102.584068 106.601079,101.682987 106.601079,100.572727 C106.601079,99.4624664 105.699999,98.5613855 104.589738,98.5613855 C103.479478,98.5613855 102.578397,99.4624664 102.578397,100.572727 C102.578397,101.682987 103.479478,102.584068 104.589738,102.584068 Z" id="Combined-Shape" fill="#1201E8"></path>
                    <path d="M119.000997,38.2211519 C120.048906,36.7327594 120.680467,34.9326091 120.680467,32.9755742 L120.680467,9.27393045 C120.680467,4.16311266 116.523025,0.00567056091 111.412207,0.00567056091 L9.26825989,0.00567056091 C4.1574421,0.00567056091 0,4.16311266 0,9.27393045 L0,32.9735629 C0,34.9326091 0.631561112,36.7307481 1.67946984,38.2191405 L119.000997,38.2191405 L119.000997,38.2211519 Z M104.589738,22.1304229 C105.699999,22.1304229 106.601079,23.0315037 106.601079,24.141764 C106.601079,25.2520243 105.699999,26.1531051 104.589738,26.1531051 C103.479478,26.1531051 102.578397,25.2520243 102.578397,24.141764 C102.578397,23.0315037 103.479478,22.1304229 104.589738,22.1304229 Z M100.567056,16.0963995 C101.677316,16.0963995 102.578397,16.9974804 102.578397,18.1077407 C102.578397,19.218001 101.677316,20.1190818 100.567056,20.1190818 C99.4567958,20.1190818 98.555715,19.218001 98.555715,18.1077407 C98.555715,16.9974804 99.4567958,16.0963995 100.567056,16.0963995 Z M96.5443738,22.1304229 C97.6546341,22.1304229 98.555715,23.0315037 98.555715,24.141764 C98.555715,25.2520243 97.6546341,26.1531051 96.5443738,26.1531051 C95.4341135,26.1531051 94.5330327,25.2520243 94.5330327,24.141764 C94.5330327,23.0315037 95.4341135,22.1304229 96.5443738,22.1304229 Z M92.5216916,16.0963995 C93.6319519,16.0963995 94.5330327,16.9974804 94.5330327,18.1077407 C94.5330327,19.218001 93.6319519,20.1190818 92.5216916,20.1190818 C91.4114313,20.1190818 90.5103505,19.218001 90.5103505,18.1077407 C90.5103505,16.9974804 91.4114313,16.0963995 92.5216916,16.0963995 Z M88.4990094,22.1304229 C89.6092697,22.1304229 90.5103505,23.0315037 90.5103505,24.141764 C90.5103505,25.2520243 89.6092697,26.1531051 88.4990094,26.1531051 C87.3887491,26.1531051 86.4876682,25.2520243 86.4876682,24.141764 C86.4876682,23.0315037 87.3887491,22.1304229 88.4990094,22.1304229 Z M84.4763271,16.0963995 C85.5865874,16.0963995 86.4876682,16.9974804 86.4876682,18.1077407 C86.4876682,19.218001 85.5865874,20.1190818 84.4763271,20.1190818 C83.3660668,20.1190818 82.464986,19.218001 82.464986,18.1077407 C82.464986,16.9974804 83.3660668,16.0963995 84.4763271,16.0963995 Z M80.4536449,22.1304229 C81.5639052,22.1304229 82.464986,23.0315037 82.464986,24.141764 C82.464986,25.2520243 81.5639052,26.1531051 80.4536449,26.1531051 C79.3433846,26.1531051 78.4423038,25.2520243 78.4423038,24.141764 C78.4423038,23.0315037 79.3433846,22.1304229 80.4536449,22.1304229 Z M76.4309626,16.0963995 C77.5412229,16.0963995 78.4423038,16.9974804 78.4423038,18.1077407 C78.4423038,19.218001 77.5412229,20.1190818 76.4309626,20.1190818 C75.3207023,20.1190818 74.4196215,19.218001 74.4196215,18.1077407 C74.4196215,16.9974804 75.3207023,16.0963995 76.4309626,16.0963995 Z M72.4082804,22.1304229 C73.5185407,22.1304229 74.4196215,23.0315037 74.4196215,24.141764 C74.4196215,25.2520243 73.5185407,26.1531051 72.4082804,26.1531051 C71.2980201,26.1531051 70.3969393,25.2520243 70.3969393,24.141764 C70.3969393,23.0315037 71.2980201,22.1304229 72.4082804,22.1304229 Z M68.3855981,16.0963995 C69.4958584,16.0963995 70.3969393,16.9974804 70.3969393,18.1077407 C70.3969393,19.218001 69.4958584,20.1190818 68.3855981,20.1190818 C67.2753378,20.1190818 66.374257,19.218001 66.374257,18.1077407 C66.374257,16.9974804 67.2753378,16.0963995 68.3855981,16.0963995 Z M21.1190818,12.0737173 C26.1092191,12.0737173 30.1701168,16.134615 30.1701168,21.1247523 C30.1701168,26.1148897 26.1092191,30.1757874 21.1190818,30.1757874 C16.1289445,30.1757874 12.0680467,26.1148897 12.0680467,21.1247523 C12.0680467,16.134615 16.1289445,12.0737173 21.1190818,12.0737173 Z" id="Shape" fill="#E808F2"></path>
                </g>
                <g id="iconfinder_vector_522_07_1609423" transform="translate(212.000000, 222.000000)">
                    <circle id="Oval" fill="#1201E8" cx="45" cy="60" r="45"></circle>
                    <polygon id="Path" fill="#E808F2" fill-rule="nonzero" points="98.655578 99.7734281 96.344422 102.726572 53.219422 68.9765719 55.530578 66.0234281"></polygon>
                    <polygon id="Path" fill="#E808F2" fill-rule="nonzero" points="96.344422 17.2734281 98.655578 20.2265719 55.530578 53.9765719 53.219422 51.0234281"></polygon>
                    <circle id="Oval" fill="#FFFFFF" cx="45" cy="60" r="24.375"></circle>
                    <g id="Group" transform="translate(97.500000, 58.125000)" fill="#E808F2" fill-rule="nonzero">
                        <polygon id="Path" points="0 3.75 0 0 3.75 0 3.75 3.75"></polygon>
                        <polygon id="Path" points="7.5 3.75 7.5 0 11.25 0 11.25 3.75"></polygon>
                        <polygon id="Path" points="15 3.75 15 0 18.75 0 18.75 3.75"></polygon>
                    </g>
                    <polygon id="Path" fill="#E808F2" fill-rule="nonzero" points="56.25 61.875 56.25 58.125 93.75 58.125 93.75 61.875"></polygon>
                    <g id="Group" transform="translate(31.875000, 46.875000)" fill="#E808F2" fill-rule="nonzero">
                        <path d="M13.125,26.25 C5.87626266,26.25 0,20.3737373 0,13.125 C0,5.87626266 5.87626266,0 13.125,0 C20.3737373,0 26.25,5.87626266 26.25,13.125 C26.25,20.3737373 20.3737373,26.25 13.125,26.25 Z M13.125,22.5 C18.3026695,22.5 22.5,18.3026695 22.5,13.125 C22.5,7.94733047 18.3026695,3.75 13.125,3.75 C7.94733047,3.75 3.75,7.94733047 3.75,13.125 C3.75,18.3026695 7.94733047,22.5 13.125,22.5 Z" id="Oval"></path>
                        <polygon id="Path" points="11.25 15 11.25 11.25 15 11.25 15 15"></polygon>
                    </g>
                    <g id="Group" transform="translate(93.750000, 93.750000)" fill="#E808F2" fill-rule="nonzero">
                        <path d="M13.125,26.25 C5.87626266,26.25 0,20.3737373 0,13.125 C0,5.87626266 5.87626266,0 13.125,0 C20.3737373,0 26.25,5.87626266 26.25,13.125 C26.25,20.3737373 20.3737373,26.25 13.125,26.25 Z M13.125,22.5 C18.3026695,22.5 22.5,18.3026695 22.5,13.125 C22.5,7.94733047 18.3026695,3.75 13.125,3.75 C7.94733047,3.75 3.75,7.94733047 3.75,13.125 C3.75,18.3026695 7.94733047,22.5 13.125,22.5 Z" id="Oval"></path>
                        <polygon id="Path" points="11.25 15 11.25 11.25 15 11.25 15 15"></polygon>
                    </g>
                    <g id="Group" transform="translate(93.750000, 0.000000)" fill="#E808F2" fill-rule="nonzero">
                        <path d="M13.125,26.25 C5.87626266,26.25 0,20.3737373 0,13.125 C0,5.87626266 5.87626266,0 13.125,0 C20.3737373,0 26.25,5.87626266 26.25,13.125 C26.25,20.3737373 20.3737373,26.25 13.125,26.25 Z M13.125,22.5 C18.3026695,22.5 22.5,18.3026695 22.5,13.125 C22.5,7.94733047 18.3026695,3.75 13.125,3.75 C7.94733047,3.75 3.75,7.94733047 3.75,13.125 C3.75,18.3026695 7.94733047,22.5 13.125,22.5 Z" id="Oval"></path>
                        <polygon id="Path" points="11.25 15 11.25 11.25 15 11.25 15 15"></polygon>
                    </g>
                </g>
                <g id="iconfinder_vector_305_06_457984" transform="translate(197.000000, 0.000000)">
                    <g id="Group">
                        <path d="M150,114.70425 C150,116.0595 149.4825,117.41625 148.44975,118.44825 C147.41475,119.48175 146.0595,119.99925 144.7065,119.99925 L5.29425,119.99925 C3.93975,119.99925 2.5845,119.48175 1.551,118.44825 C0.51675,117.417 0,116.0595 0,114.70425 L0,27 L150,27 L150,114.70425 Z" id="Path" fill="#1201E8"></path>
                        <path d="M150,27 L0,27 L0,5.29275 C0,3.939 0.51675,2.5845 1.551,1.55025 C2.5845,0.516 3.93975,0 5.29425,0 L144.70575,0 C146.0595,0 147.414,0.516 148.449,1.55025 C149.48175,2.5845 149.99925,3.93975 149.99925,5.29275 L150,27 Z" id="Path" fill="#E808F2"></path>
                    </g>
                    <g id="Group" transform="translate(36.000000, 45.750000)" fill="#E808F2">
                        <polygon id="Path" points="19.27575 46.67625 0.34725 27.7485 19.27575 8.8215 24.267 13.81275 10.3305 27.7485 24.267 41.6865"></polygon>
                        <polygon id="Path" points="58.72425 46.67625 53.733 41.6865 67.6695 27.7485 53.733 13.81275 58.72425 8.8215 77.652 27.7485"></polygon>
                        <polygon id="Rectangle" transform="translate(39.000020, 27.755709) rotate(15.836006) translate(-39.000020, -27.755709) " points="35.4699496 0.23893461 42.5300907 0.23893461 42.5300907 55.2724838 35.4699496 55.2724838"></polygon>
                    </g>
                    <g id="Group" transform="translate(8.250000, 9.000000)" fill="#FFFFFF">
                        <path d="M9.39675,4.50075 C9.39675,6.9345 7.422,8.91225 4.98525,8.91225 C2.54775,8.91225 0.573,6.9345 0.573,4.50075 C0.573,2.06325 2.5485,0.08775 4.98525,0.08775 C7.422,0.0885 9.39675,2.06325 9.39675,4.50075 Z" id="Path"></path>
                        <path d="M22.63275,4.50075 C22.63275,6.9345 20.658,8.91225 18.2205,8.91225 C15.78375,8.91225 13.809,6.9345 13.809,4.50075 C13.809,2.06325 15.78375,0.08775 18.2205,0.08775 C20.65725,0.0885 22.63275,2.06325 22.63275,4.50075 Z" id="Path"></path>
                        <path d="M35.86725,4.50075 C35.86725,6.9345 33.89325,8.91225 31.45575,8.91225 C29.019,8.91225 27.04425,6.9345 27.04425,4.50075 C27.04425,2.06325 29.019,0.08775 31.45575,0.08775 C33.89325,0.0885 35.86725,2.06325 35.86725,4.50075 Z" id="Path"></path>
                    </g>
                </g>
                <path d="M370.113001,56.4676192 L788.113001,56.4676192 L788.113001,52 C788.113001,50.8954305 789.008431,50 790.113001,50 C790.475489,50 790.831162,50.0985157 791.141993,50.2850141 L805.254691,58.7526334 C806.201852,59.3209297 806.508982,60.5494502 805.940686,61.4966108 C805.771786,61.77811 805.53619,62.0137056 805.254691,62.1826051 L791.141993,70.6502243 C790.194832,71.2185207 788.966311,70.9113905 788.398015,69.96423 C788.211517,69.6533992 788.113001,69.2977264 788.113001,68.9352385 L788.113001,64.4676192 L370.113001,64.4676192 L370.113001,68.9352385 C370.113001,69.2977264 370.014485,69.6533992 369.827987,69.96423 C369.259691,70.9113905 368.03117,71.2185207 367.084009,70.6502243 L352.971311,62.1826051 C352.689812,62.0137056 352.454216,61.77811 352.285316,61.4966108 C351.71702,60.5494502 352.02415,59.3209297 352.971311,58.7526334 L367.084009,50.2850141 C367.39484,50.0985157 367.750513,50 368.113001,50 C369.21757,50 370.113001,50.8954305 370.113001,52 L370.113001,56.4676192 Z" id="Path" fill="#333537"></path>
                <path d="M875,200 L879.467619,200 C879.830107,200 880.18578,200.098516 880.496611,200.285014 C881.443771,200.85331 881.750901,202.081831 881.182605,203.028992 L872.714986,217.14169 C872.546086,217.423189 872.310491,217.658785 872.028992,217.827685 C871.081831,218.395981 869.85331,218.088851 869.285014,217.14169 L860.817395,203.028992 C860.630896,202.718161 860.532381,202.362488 860.532381,202 C860.532381,200.895431 861.427811,200 862.532381,200 L867,200 L867,143 L862.532381,143 C861.427811,143 860.532381,142.104569 860.532381,141 C860.532381,140.637512 860.630896,140.281839 860.817395,139.971008 L869.285014,125.85831 C869.85331,124.911149 871.081831,124.604019 872.028992,125.172315 C872.310491,125.341215 872.546086,125.576811 872.714986,125.85831 L881.182605,139.971008 C881.750901,140.918169 881.443771,142.14669 880.496611,142.714986 C880.18578,142.901484 879.830107,143 879.467619,143 L875,143 L875,200 Z" id="Path" fill="#333537"></path>
                <path d="M262,214 L266.467619,214 C266.830107,214 267.18578,214.098516 267.496611,214.285014 C268.443771,214.85331 268.750901,216.081831 268.182605,217.028992 L259.714986,231.14169 C259.546086,231.423189 259.310491,231.658785 259.028992,231.827685 C258.081831,232.395981 256.85331,232.088851 256.285014,231.14169 L247.817395,217.028992 C247.630896,216.718161 247.532381,216.362488 247.532381,216 C247.532381,214.895431 248.427811,214 249.532381,214 L254,214 L254,143 L249.532381,143 C248.427811,143 247.532381,142.104569 247.532381,141 C247.532381,140.637512 247.630896,140.281839 247.817395,139.971008 L256.285014,125.85831 C256.85331,124.911149 258.081831,124.604019 259.028992,125.172315 C259.310491,125.341215 259.546086,125.576811 259.714986,125.85831 L268.182605,139.971008 C268.750901,140.918169 268.443771,142.14669 267.496611,142.714986 C267.18578,142.901484 266.830107,143 266.467619,143 L262,143 L262,214 Z" id="Path" fill="#333537"></path>
                <path d="M804.262191,283.8408 L788.223579,287.532921 C787.147163,287.780714 786.073679,287.108982 785.825885,286.032566 C785.744567,285.679317 785.760782,285.310609 785.872797,284.965863 L791.106073,268.859494 C791.447404,267.808986 792.575712,267.234084 793.62622,267.575415 C793.970967,267.68743 794.278789,267.891033 794.516775,268.164455 L805.322111,280.578703 C806.047301,281.411874 805.959765,282.675175 805.126595,283.400365 C804.878974,283.615894 804.582106,283.767155 804.262191,283.8408 Z" id="Triangle" fill="#333537"></path>
                <path d="M356,122.886999 L788.781231,277" id="Path-4" stroke="#333537" stroke-width="8" stroke-linecap="round" stroke-dasharray="24,25"></path>
                <path d="M52.344,51 L50.776,51 L43.664,30.308 L46.632,30.308 L51.616,45.456 L57.104,30.308 L58.364,30.308 L63.992,45.456 L68.892,30.308 L71.832,30.308 L64.776,51 L63.236,51 L57.776,35.544 L52.344,51 Z M86.896,43.216 C86.896,43.412 86.868,43.86 86.812,44.588 L74.856,44.588 C75.304,47.136 76.984,48.872 80.12,48.872 C81.912,48.872 83.984,48.2 85.356,47.192 L86.504,49.236 C85.02,50.384 82.556,51.336 80.064,51.336 C74.408,51.336 72.056,47.332 72.056,43.44 C72.056,41.172 72.756,39.324 74.156,37.84 C75.584,36.356 77.404,35.628 79.644,35.628 C81.772,35.628 83.508,36.3 84.852,37.672 C86.224,39.044 86.896,40.892 86.896,43.216 Z M74.856,42.264 L84.124,42.264 C83.984,39.66 82.108,38.008 79.644,38.008 C77.18,38.008 75.304,39.772 74.856,42.264 Z M98.04,35.628 C100.168,35.628 101.932,36.384 103.36,37.924 C104.788,39.436 105.516,41.284 105.516,43.496 C105.516,45.708 104.788,47.556 103.36,49.096 C101.932,50.608 100.168,51.364 98.012,51.364 C95.856,51.364 94.092,50.524 92.748,48.816 L92.748,51 L90.06,51 L90.06,29.804 L92.748,29.804 L92.748,38.26 C94.12,36.496 95.884,35.628 98.04,35.628 Z M97.704,48.844 C99.216,48.844 100.448,48.34 101.372,47.304 C102.324,46.268 102.8,44.98 102.8,43.468 C102.8,41.984 102.324,40.724 101.372,39.688 C100.448,38.652 99.216,38.148 97.704,38.148 C96.164,38.148 94.932,38.652 94.008,39.688 C93.084,40.724 92.636,41.984 92.636,43.468 C92.636,45.008 93.084,46.268 94.008,47.304 C94.932,48.34 96.164,48.844 97.704,48.844 Z M112.936,51.336 C110.696,51.336 108.512,50.244 107.364,48.088 L109.296,46.604 C110.164,48.2 111.648,48.984 113.02,48.984 C114.616,48.984 115.68,48.06 115.68,46.912 C115.68,46.128 115.232,45.484 114.308,45.008 C114,44.84 113.356,44.56 112.432,44.168 C111.508,43.776 110.892,43.496 110.584,43.328 C109.044,42.488 108.288,41.284 108.288,39.688 C108.288,38.484 108.736,37.476 109.632,36.692 C110.528,35.88 111.704,35.488 113.188,35.488 C115.092,35.488 116.94,36.3 117.948,37.868 L116.24,39.492 C115.428,38.344 114.364,37.756 113.02,37.756 C111.676,37.756 110.864,38.568 110.864,39.576 C110.864,40.36 111.284,40.948 112.124,41.34 L113.776,42.068 C114.672,42.432 115.344,42.74 115.792,42.992 C117.5,43.86 118.34,45.12 118.34,46.772 C118.34,48.06 117.836,49.152 116.828,50.02 C115.82,50.888 114.532,51.336 112.936,51.336 Z M122.848,33.864 C121.728,33.864 120.888,33.052 120.888,31.932 C120.888,30.84 121.728,30.056 122.848,30.056 C123.884,30.056 124.752,30.896 124.752,31.932 C124.752,33.052 123.884,33.864 122.848,33.864 Z M124.136,35.992 L124.136,51 L121.448,51 L121.448,35.992 L124.136,35.992 Z M137.1,48.032 L138.108,50.104 C137.016,50.944 135.7,51.364 134.104,51.364 C130.94,51.364 129.316,49.32 129.316,45.736 L129.316,38.288 L126.656,38.288 L126.656,35.992 L129.344,35.992 L129.344,30.672 L131.976,30.672 L131.976,35.992 L137.296,35.992 L137.296,38.288 L131.976,38.288 L131.976,45.932 C131.976,47.92 132.788,48.9 134.412,48.9 C135.28,48.9 136.176,48.62 137.1,48.032 Z M153.984,43.216 C153.984,43.412 153.956,43.86 153.9,44.588 L141.944,44.588 C142.392,47.136 144.072,48.872 147.208,48.872 C149,48.872 151.072,48.2 152.444,47.192 L153.592,49.236 C152.108,50.384 149.644,51.336 147.152,51.336 C141.496,51.336 139.144,47.332 139.144,43.44 C139.144,41.172 139.844,39.324 141.244,37.84 C142.672,36.356 144.492,35.628 146.732,35.628 C148.86,35.628 150.596,36.3 151.94,37.672 C153.312,39.044 153.984,40.892 153.984,43.216 Z M141.944,42.264 L151.212,42.264 C151.072,39.66 149.196,38.008 146.732,38.008 C144.268,38.008 142.392,39.772 141.944,42.264 Z M170.784,39.968 L176.048,39.968 L176.048,42.488 L170.784,42.488 L170.784,47.78 L168.264,47.808 L168.264,42.488 L162.944,42.488 L162.944,39.968 L168.264,39.968 L168.264,34.676 L170.784,34.676 L170.784,39.968 Z M8.692,91.364 C5.416,91.364 2.476,90.048 0.572,87.612 L3.092,84.308 C4.632,86.128 6.508,87.052 8.72,87.052 C10.288,87.052 11.436,86.324 11.436,85.176 C11.436,84.42 10.848,83.776 9.644,83.244 L7.796,82.572 C6.62,82.124 5.724,81.732 5.136,81.424 C2.924,80.22 1.804,78.456 1.804,76.188 C1.804,74.396 2.476,72.912 3.848,71.736 C5.22,70.56 7.012,69.972 9.168,69.972 C11.912,69.972 14.264,70.896 16.196,72.716 L13.9,76.16 C12.696,75.012 10.764,74.312 9.224,74.312 C7.656,74.312 6.76,75.012 6.76,76.02 C6.76,76.72 7.32,77.336 8.44,77.84 L10.456,78.652 C11.52,79.072 12.304,79.38 12.836,79.632 C15.328,80.752 16.56,82.516 16.56,84.896 C16.56,86.772 15.832,88.34 14.376,89.544 C12.948,90.748 11.044,91.364 8.692,91.364 Z M28.096,75.264 C30.28,75.264 32.072,76.048 33.5,77.616 C34.928,79.156 35.628,81.06 35.628,83.3 C35.628,85.568 34.9,87.472 33.472,89.04 C32.044,90.608 30.252,91.392 28.096,91.392 C26.276,91.392 24.736,90.748 23.476,89.432 L23.476,97.328 L19.08,97.328 L19.08,75.656 L23.42,75.656 L23.42,77.364 C24.68,75.964 26.248,75.264 28.096,75.264 Z M31.176,83.328 C31.176,82.208 30.812,81.256 30.084,80.5 C29.356,79.716 28.432,79.324 27.284,79.324 C26.164,79.324 25.24,79.716 24.512,80.5 C23.784,81.256 23.42,82.208 23.42,83.328 C23.42,85.596 25.016,87.36 27.284,87.36 C29.552,87.36 31.176,85.596 31.176,83.328 Z M53.352,82.964 C53.352,83.496 53.296,84.112 53.212,84.812 L41.928,84.812 C42.46,86.744 43.86,87.696 46.1,87.696 C47.836,87.696 49.432,87.192 50.888,86.212 L52.624,89.208 C50.748,90.636 48.508,91.336 45.904,91.336 C43.188,91.336 41.116,90.552 39.66,89.012 C38.232,87.472 37.504,85.568 37.504,83.3 C37.504,80.976 38.26,79.072 39.744,77.56 C41.228,76.02 43.188,75.264 45.596,75.264 C47.864,75.264 49.712,75.964 51.168,77.336 C52.624,78.708 53.352,80.584 53.352,82.964 Z M45.596,78.82 C43.804,78.82 42.376,79.884 41.9,81.676 L49.124,81.676 C48.704,79.912 47.416,78.82 45.596,78.82 Z M71.048,82.964 C71.048,83.496 70.992,84.112 70.908,84.812 L59.624,84.812 C60.156,86.744 61.556,87.696 63.796,87.696 C65.532,87.696 67.128,87.192 68.584,86.212 L70.32,89.208 C68.444,90.636 66.204,91.336 63.6,91.336 C60.884,91.336 58.812,90.552 57.356,89.012 C55.928,87.472 55.2,85.568 55.2,83.3 C55.2,80.976 55.956,79.072 57.44,77.56 C58.924,76.02 60.884,75.264 63.292,75.264 C65.56,75.264 67.408,75.964 68.864,77.336 C70.32,78.708 71.048,80.584 71.048,82.964 Z M63.292,78.82 C61.5,78.82 60.072,79.884 59.596,81.676 L66.82,81.676 C66.4,79.912 65.112,78.82 63.292,78.82 Z M84.852,77.14 L84.852,69.692 L89.248,69.692 L89.248,91 L84.992,91 L84.992,89.348 C83.788,90.72 82.276,91.392 80.428,91.392 C78.272,91.392 76.48,90.636 75.024,89.096 C73.596,87.556 72.868,85.652 72.868,83.328 C72.868,81.032 73.596,79.128 75.024,77.588 C76.48,76.048 78.272,75.264 80.428,75.264 C82.164,75.264 83.648,75.88 84.852,77.14 Z M85.076,83.3 C85.076,82.18 84.712,81.228 83.956,80.444 C83.228,79.66 82.304,79.268 81.156,79.268 C80.008,79.268 79.084,79.66 78.328,80.444 C77.6,81.228 77.236,82.18 77.236,83.3 C77.236,84.448 77.6,85.428 78.328,86.212 C79.084,86.996 80.008,87.388 81.156,87.388 C82.304,87.388 83.228,86.996 83.956,86.212 C84.712,85.428 85.076,84.448 85.076,83.3 Z M118.004,91 L112.32,91 L107.112,83.132 L104.676,86.072 L104.676,91 L100.056,91 L100.056,70.308 L104.676,70.308 L104.676,79.548 L111.928,70.308 L117.528,70.308 L110.136,79.604 L118.004,91 Z M121.644,74.088 C120.16,74.088 119.012,72.968 119.012,71.484 C119.012,70 120.16,68.88 121.644,68.88 C123.1,68.88 124.248,70 124.248,71.484 C124.248,72.968 123.1,74.088 121.644,74.088 Z M123.8,75.656 L123.8,91 L119.404,91 L119.404,75.656 L123.8,75.656 Z M137.352,86.632 L138.584,90.132 C137.268,90.972 135.7,91.392 133.88,91.392 C130.212,91.392 128.392,89.32 128.392,85.204 L128.392,79.296 L125.956,79.296 L125.956,75.656 L128.42,75.656 L128.42,70.224 L132.788,70.224 L132.788,75.656 L137.716,75.656 L137.716,79.296 L132.788,79.296 L132.788,84.784 C132.788,86.52 133.46,87.388 134.832,87.388 C135.532,87.388 136.372,87.136 137.352,86.632 Z M151.884,91.336 C149.448,91.336 147.488,90.44 145.948,88.676 L147.656,86.632 C148.776,88.004 150.176,88.676 151.884,88.676 C154.32,88.676 156,87.052 156,84.14 L156,70.308 L158.8,70.308 L158.8,84.28 C158.8,86.52 158.156,88.256 156.868,89.488 C155.608,90.72 153.928,91.336 151.884,91.336 Z M169.02,91.336 C166.024,91.336 163.308,89.852 161.964,87.08 L164.036,85.372 C165.156,87.584 166.976,88.676 168.992,88.676 C171.344,88.676 172.8,87.304 172.8,85.54 C172.8,84.42 172.072,83.468 170.644,82.656 C170.28,82.46 169.552,82.124 168.516,81.648 C167.48,81.172 166.724,80.78 166.192,80.472 C164.12,79.156 163.084,77.504 163.084,75.544 C163.084,73.948 163.644,72.632 164.792,71.568 C165.94,70.476 167.452,69.944 169.328,69.944 C171.876,69.944 173.92,70.952 175.404,72.996 L173.528,74.788 C172.408,73.304 171.008,72.576 169.356,72.576 C167.48,72.576 166.08,73.696 166.08,75.376 C166.08,76.468 166.668,77.336 167.844,78.036 C168.208,78.26 168.992,78.68 170.252,79.268 C171.512,79.856 172.38,80.304 172.856,80.584 C174.844,81.788 175.852,83.384 175.852,85.4 C175.852,87.164 175.208,88.592 173.892,89.684 C172.604,90.776 170.98,91.336 169.02,91.336 Z" id="Website-+-Speed-Kit" fill="#333537"></path>
                <path d="M73.476,274.336 C71.264,274.336 69.136,273.664 67.12,272.292 L68.38,270.024 C70.2,271.172 71.908,271.76 73.448,271.76 C76.024,271.76 77.648,270.332 77.648,268.232 C77.648,266.104 75.884,264.62 73.392,264.62 L70.844,264.62 L70.844,262.128 L73.364,262.128 C75.632,262.128 77.256,260.756 77.256,258.768 C77.256,256.752 75.66,255.52 73.56,255.52 C72.104,255.52 70.592,256.136 69.024,257.34 L67.596,255.38 C69.08,253.896 71.46,252.944 73.784,252.944 C75.66,252.944 77.172,253.476 78.348,254.512 C79.524,255.548 80.112,256.864 80.112,258.404 C80.112,260.644 78.656,262.464 76.528,263.136 L76.528,263.248 C79.02,263.808 80.56,265.824 80.56,268.316 C80.56,270.08 79.888,271.536 78.572,272.656 C77.256,273.776 75.576,274.336 73.476,274.336 Z M86.804,274 L84.116,274 L84.116,258.992 L86.664,258.992 L86.664,261.204 C87.532,259.468 88.988,258.6 90.976,258.6 C91.564,258.6 92.152,258.684 92.74,258.824 L92.488,261.428 C91.956,261.26 91.424,261.176 90.92,261.176 C88.54,261.176 86.804,262.828 86.804,266.048 L86.804,274 Z M106.152,261.176 L106.152,252.804 L108.84,252.804 L108.84,274 L106.152,274 L106.152,271.9 C104.836,273.552 103.1,274.364 100.944,274.364 C98.76,274.364 96.94,273.608 95.512,272.096 C94.084,270.556 93.384,268.68 93.384,266.468 C93.384,264.284 94.084,262.436 95.512,260.924 C96.94,259.384 98.732,258.628 100.888,258.628 C103.044,258.628 104.78,259.468 106.152,261.176 Z M106.348,266.468 C106.348,264.984 105.872,263.696 104.92,262.66 C103.996,261.624 102.764,261.092 101.224,261.092 C99.684,261.092 98.452,261.624 97.5,262.66 C96.576,263.696 96.1,264.984 96.1,266.468 C96.1,268.008 96.576,269.296 97.5,270.332 C98.452,271.368 99.684,271.9 101.224,271.9 C102.764,271.9 103.996,271.368 104.92,270.332 C105.872,269.296 106.348,268.008 106.348,266.468 Z M120.432,253.308 L127.348,253.308 C129.532,253.308 131.184,253.952 132.332,255.212 C133.48,256.472 134.04,257.956 134.04,259.692 C134.04,261.456 133.452,262.968 132.248,264.228 C131.044,265.46 129.336,266.076 127.096,266.076 L123.232,266.076 L123.232,274 L120.432,274 L120.432,253.308 Z M123.232,263.472 L127.152,263.472 C129.84,263.472 131.24,261.736 131.24,259.636 C131.24,257.62 129.896,255.94 127.516,255.94 L123.232,255.94 L123.232,263.472 Z M148.488,261.176 L148.488,258.992 L151.064,258.992 L151.064,274 L148.488,274 L148.488,271.872 C147.144,273.524 145.38,274.364 143.196,274.364 C141.04,274.364 139.248,273.608 137.82,272.068 C136.392,270.528 135.692,268.652 135.692,266.384 C135.692,264.144 136.392,262.296 137.82,260.84 C139.248,259.356 141.04,258.628 143.196,258.628 C145.324,258.628 147.088,259.468 148.488,261.176 Z M148.656,266.468 C148.656,264.984 148.18,263.696 147.228,262.66 C146.276,261.624 145.044,261.092 143.504,261.092 C141.964,261.092 140.732,261.624 139.808,262.66 C138.884,263.696 138.408,264.984 138.408,266.496 C138.408,268.008 138.884,269.296 139.808,270.332 C140.732,271.368 141.964,271.9 143.504,271.9 C145.044,271.9 146.276,271.368 147.228,270.332 C148.18,269.296 148.656,268.008 148.656,266.468 Z M157.924,274 L155.236,274 L155.236,258.992 L157.784,258.992 L157.784,261.204 C158.652,259.468 160.108,258.6 162.096,258.6 C162.684,258.6 163.272,258.684 163.86,258.824 L163.608,261.428 C163.076,261.26 162.544,261.176 162.04,261.176 C159.66,261.176 157.924,262.828 157.924,266.048 L157.924,274 Z M175.368,271.032 L176.376,273.104 C175.284,273.944 173.968,274.364 172.372,274.364 C169.208,274.364 167.584,272.32 167.584,268.736 L167.584,261.288 L164.924,261.288 L164.924,258.992 L167.612,258.992 L167.612,253.672 L170.244,253.672 L170.244,258.992 L175.564,258.992 L175.564,261.288 L170.244,261.288 L170.244,268.932 C170.244,270.92 171.056,271.9 172.68,271.9 C173.548,271.9 174.444,271.62 175.368,271.032 Z M184.58,270.248 L188.612,258.992 L191.58,258.992 L185.28,275.68 C184.02,279.04 182.424,280.384 180.072,280.384 C179.092,280.384 178.308,280.188 177.664,279.796 L178,277.444 C178.7,277.752 179.316,277.892 179.82,277.892 C181.052,277.892 182.032,277.024 182.788,275.26 L183.348,273.944 L176.824,258.992 L179.932,258.992 L184.58,270.248 Z M79.832,314.364 C76.556,314.364 73.616,313.048 71.712,310.612 L74.232,307.308 C75.772,309.128 77.648,310.052 79.86,310.052 C81.428,310.052 82.576,309.324 82.576,308.176 C82.576,307.42 81.988,306.776 80.784,306.244 L78.936,305.572 C77.76,305.124 76.864,304.732 76.276,304.424 C74.064,303.22 72.944,301.456 72.944,299.188 C72.944,297.396 73.616,295.912 74.988,294.736 C76.36,293.56 78.152,292.972 80.308,292.972 C83.052,292.972 85.404,293.896 87.336,295.716 L85.04,299.16 C83.836,298.012 81.904,297.312 80.364,297.312 C78.796,297.312 77.9,298.012 77.9,299.02 C77.9,299.72 78.46,300.336 79.58,300.84 L81.596,301.652 C82.66,302.072 83.444,302.38 83.976,302.632 C86.468,303.752 87.7,305.516 87.7,307.896 C87.7,309.772 86.972,311.34 85.516,312.544 C84.088,313.748 82.184,314.364 79.832,314.364 Z M105.452,305.964 C105.452,306.496 105.396,307.112 105.312,307.812 L94.028,307.812 C94.56,309.744 95.96,310.696 98.2,310.696 C99.936,310.696 101.532,310.192 102.988,309.212 L104.724,312.208 C102.848,313.636 100.608,314.336 98.004,314.336 C95.288,314.336 93.216,313.552 91.76,312.012 C90.332,310.472 89.604,308.568 89.604,306.3 C89.604,303.976 90.36,302.072 91.844,300.56 C93.328,299.02 95.288,298.264 97.696,298.264 C99.964,298.264 101.812,298.964 103.268,300.336 C104.724,301.708 105.452,303.584 105.452,305.964 Z M97.696,301.82 C95.904,301.82 94.476,302.884 94,304.676 L101.224,304.676 C100.804,302.912 99.516,301.82 97.696,301.82 Z M112.424,314 L108.028,314 L108.028,298.656 L112.228,298.656 L112.228,300.644 C113.208,299.048 114.58,298.236 116.4,298.236 C116.988,298.236 117.604,298.348 118.304,298.6 L117.94,302.8 C117.296,302.576 116.652,302.464 116.008,302.464 C113.852,302.464 112.424,303.864 112.424,307 L112.424,314 Z M127.012,308.064 L130.512,298.656 L135.3,298.656 L128.664,313.972 L125.22,313.972 L118.612,298.656 L123.456,298.656 L127.012,308.064 Z M139.472,297.088 C137.988,297.088 136.84,295.968 136.84,294.484 C136.84,293 137.988,291.88 139.472,291.88 C140.928,291.88 142.076,293 142.076,294.484 C142.076,295.968 140.928,297.088 139.472,297.088 Z M141.628,298.656 L141.628,314 L137.232,314 L137.232,298.656 L141.628,298.656 Z M152.324,314.336 C149.916,314.336 147.956,313.58 146.444,312.096 C144.932,310.584 144.176,308.652 144.176,306.3 C144.176,303.948 144.932,302.016 146.472,300.532 C148.012,299.02 149.972,298.264 152.408,298.264 C155.572,298.264 158.372,299.832 159.632,302.632 L156.132,304.508 C155.236,303.052 154.032,302.324 152.492,302.324 C151.344,302.324 150.42,302.716 149.664,303.472 C148.908,304.228 148.544,305.18 148.544,306.3 C148.544,307.448 148.908,308.428 149.636,309.184 C150.392,309.94 151.316,310.304 152.436,310.304 C153.976,310.304 155.404,309.408 156.048,308.148 L159.604,310.248 C158.26,312.74 155.544,314.336 152.324,314.336 Z M176.908,305.964 C176.908,306.496 176.852,307.112 176.768,307.812 L165.484,307.812 C166.016,309.744 167.416,310.696 169.656,310.696 C171.392,310.696 172.988,310.192 174.444,309.212 L176.18,312.208 C174.304,313.636 172.064,314.336 169.46,314.336 C166.744,314.336 164.672,313.552 163.216,312.012 C161.788,310.472 161.06,308.568 161.06,306.3 C161.06,303.976 161.816,302.072 163.3,300.56 C164.784,299.02 166.744,298.264 169.152,298.264 C171.42,298.264 173.268,298.964 174.724,300.336 C176.18,301.708 176.908,303.584 176.908,305.964 Z M169.152,301.82 C167.36,301.82 165.932,302.884 165.456,304.676 L172.68,304.676 C172.26,302.912 170.972,301.82 169.152,301.82 Z M184.804,314.42 C182.088,314.42 179.904,313.468 178.252,311.592 L180.408,308.736 C181.724,310.08 183.18,310.752 184.804,310.752 C185.896,310.752 186.68,310.276 186.68,309.52 C186.68,309.072 186.372,308.708 185.728,308.4 C185.504,308.288 184.888,308.064 183.908,307.728 C182.928,307.364 182.256,307.112 181.92,306.944 C180.1,306.076 179.176,304.704 179.176,302.884 C179.176,301.484 179.708,300.336 180.8,299.468 C181.892,298.6 183.348,298.152 185.168,298.152 C187.38,298.152 189.228,298.852 190.712,300.28 L188.668,303.136 C187.52,302.184 186.316,301.708 185.084,301.708 C184.104,301.708 183.488,302.156 183.488,302.8 C183.488,303.36 183.936,303.78 184.86,304.088 C186.512,304.62 187.716,305.068 188.5,305.488 C190.236,306.412 191.104,307.7 191.104,309.408 C191.104,310.836 190.516,312.04 189.368,312.992 C188.22,313.944 186.708,314.42 184.804,314.42 Z" id="3rd-Party-Services" fill="#333537"></path>
                <path d="M488.536,38 L485.736,38 L488.816,17.308 L501.472,17.308 L501.08,20.024 L491.224,20.024 L490.272,26.156 L498.868,26.156 L498.476,28.872 L489.88,28.872 L488.536,38 Z M514.632,25.288 L514.996,22.992 L517.572,22.992 L515.332,38 L512.728,38 L513.064,35.76 C511.44,37.496 509.564,38.364 507.436,38.364 C505.168,38.364 503.432,37.524 502.284,35.872 C501.136,34.22 500.744,32.232 501.108,29.964 C501.444,27.808 502.396,26.044 503.964,24.672 C505.56,23.3 507.408,22.628 509.508,22.628 C511.748,22.628 513.456,23.524 514.632,25.288 Z M508.08,35.9 C509.564,35.9 510.852,35.368 511.944,34.332 C513.036,33.268 513.708,31.98 513.932,30.468 C514.156,29.012 513.876,27.752 513.064,26.688 C512.252,25.624 511.104,25.092 509.62,25.092 C508.192,25.092 506.96,25.54 505.924,26.464 C504.888,27.36 504.216,28.508 503.908,29.908 C503.572,31.448 503.768,32.848 504.524,34.08 C505.28,35.284 506.484,35.9 508.08,35.9 Z M523.9,38.336 C521.324,38.336 519.56,37.216 518.636,35.004 L520.624,33.66 C521.268,35.2 522.388,35.984 524.04,35.984 C525.608,35.984 526.924,35.088 527.12,33.94 C527.26,33.156 526.896,32.512 526,31.98 L524.572,31.308 C523.928,31 523.396,30.748 523.004,30.524 C522.64,30.3 522.22,29.992 521.772,29.628 C520.876,28.844 520.54,27.78 520.736,26.408 C521.1,24.028 523.256,22.488 525.944,22.488 C528.156,22.488 529.668,23.328 530.536,24.98 L528.688,26.464 C528.1,25.316 527.12,24.756 525.776,24.756 C524.404,24.756 523.508,25.512 523.284,26.436 C523.088,27.304 523.536,28.004 524.572,28.564 L525.776,29.124 C526.896,29.656 527.288,29.824 528.156,30.468 C529.388,31.28 529.836,32.288 529.668,34.024 C529.472,35.34 528.828,36.404 527.764,37.188 C526.7,37.944 525.412,38.336 523.9,38.336 Z M542.66,25.288 L537.368,25.288 L536.22,32.96 C535.912,34.92 536.556,35.9 538.152,35.9 C538.992,35.9 539.944,35.592 541.008,35.004 L541.764,37.132 C540.532,37.944 539.132,38.364 537.536,38.364 C534.316,38.364 533.028,36.292 533.56,32.68 L534.68,25.288 L532.048,25.288 L532.412,22.992 L535.072,22.992 L535.856,17.672 L538.516,17.672 L537.704,22.992 L543.024,22.992 L542.66,25.288 Z M566.964,23.552 C566.796,24.98 566.236,26.24 565.256,27.332 C564.304,28.424 562.988,29.124 561.308,29.432 L565.76,38 L562.316,38 L558.172,29.6 L555.344,29.6 L554.084,38 L551.284,38 L554.364,17.308 L561.196,17.308 C565.676,17.336 567.468,20.556 566.964,23.552 Z M564.108,23.412 C564.36,21.396 563.268,19.968 561,19.968 L556.772,19.968 L555.736,26.968 L559.096,26.968 C562.316,26.968 563.856,25.512 564.108,23.412 Z M577.128,22.628 C579.284,22.628 580.964,23.328 582.112,24.7 C583.26,26.072 583.68,27.948 583.316,30.328 C583.232,30.832 583.148,31.252 583.064,31.588 L571.108,31.588 C571.136,34.08 572.564,35.872 575.616,35.872 C577.38,35.872 579.62,35.172 581.104,34.164 L582.084,36.264 C580.432,37.412 577.828,38.336 575.364,38.336 C569.792,38.336 567.916,34.192 568.504,30.216 C568.812,27.976 569.764,26.156 571.36,24.756 C572.956,23.328 574.888,22.628 577.128,22.628 Z M576.988,25.008 C574.44,25.008 572.284,26.688 571.472,29.264 L580.74,29.264 C580.964,26.66 579.424,25.008 576.988,25.008 Z M599.192,25.372 L599.528,22.992 L602.188,22.992 L599.024,44.188 L596.336,44.188 L597.512,35.984 C596.028,37.58 594.208,38.364 592.052,38.364 C587.292,38.42 584.744,34.192 585.584,29.936 C585.948,27.78 586.9,26.016 588.44,24.672 C589.98,23.3 591.8,22.628 593.9,22.628 C596.252,22.628 598.016,23.552 599.192,25.372 Z M592.612,35.9 C594.096,35.9 595.384,35.368 596.476,34.332 C597.568,33.268 598.212,32.008 598.408,30.524 C598.604,29.096 598.324,27.836 597.54,26.744 C596.784,25.652 595.608,25.092 594.068,25.092 C592.64,25.092 591.408,25.568 590.372,26.492 C589.336,27.416 588.664,28.564 588.384,29.936 C588.048,31.532 588.272,32.932 589.056,34.136 C589.84,35.312 591.016,35.9 592.612,35.9 Z M610.364,38.364 C606.444,38.364 604.204,35.928 604.876,31.588 L606.192,22.992 L608.852,22.992 L607.536,31.672 C607.172,34.332 608.32,35.872 610.588,35.872 C613.024,35.872 614.648,34.248 615.096,31.364 L616.384,22.992 L619.072,22.992 L617.756,31.588 C617.084,35.984 614.312,38.364 610.364,38.364 Z M629.656,22.628 C631.812,22.628 633.492,23.328 634.64,24.7 C635.788,26.072 636.208,27.948 635.844,30.328 C635.76,30.832 635.676,31.252 635.592,31.588 L623.636,31.588 C623.664,34.08 625.092,35.872 628.144,35.872 C629.908,35.872 632.148,35.172 633.632,34.164 L634.612,36.264 C632.96,37.412 630.356,38.336 627.892,38.336 C622.32,38.336 620.444,34.192 621.032,30.216 C621.34,27.976 622.292,26.156 623.888,24.756 C625.484,23.328 627.416,22.628 629.656,22.628 Z M629.516,25.008 C626.968,25.008 624.812,26.688 624,29.264 L633.268,29.264 C633.492,26.66 631.952,25.008 629.516,25.008 Z M642.312,38.336 C639.736,38.336 637.972,37.216 637.048,35.004 L639.036,33.66 C639.68,35.2 640.8,35.984 642.452,35.984 C644.02,35.984 645.336,35.088 645.532,33.94 C645.672,33.156 645.308,32.512 644.412,31.98 L642.984,31.308 C642.34,31 641.808,30.748 641.416,30.524 C641.052,30.3 640.632,29.992 640.184,29.628 C639.288,28.844 638.952,27.78 639.148,26.408 C639.512,24.028 641.668,22.488 644.356,22.488 C646.568,22.488 648.08,23.328 648.948,24.98 L647.1,26.464 C646.512,25.316 645.532,24.756 644.188,24.756 C642.816,24.756 641.92,25.512 641.696,26.436 C641.5,27.304 641.948,28.004 642.984,28.564 L644.188,29.124 C645.308,29.656 645.7,29.824 646.568,30.468 C647.8,31.28 648.248,32.288 648.08,34.024 C647.884,35.34 647.24,36.404 646.176,37.188 C645.112,37.944 643.824,38.336 642.312,38.336 Z M661.072,25.288 L655.78,25.288 L654.632,32.96 C654.324,34.92 654.968,35.9 656.564,35.9 C657.404,35.9 658.356,35.592 659.42,35.004 L660.176,37.132 C658.944,37.944 657.544,38.364 655.948,38.364 C652.728,38.364 651.44,36.292 651.972,32.68 L653.092,25.288 L650.46,25.288 L650.824,22.992 L653.484,22.992 L654.268,17.672 L656.928,17.672 L656.116,22.992 L661.436,22.992 L661.072,25.288 Z M666.588,38.336 C664.012,38.336 662.248,37.216 661.324,35.004 L663.312,33.66 C663.956,35.2 665.076,35.984 666.728,35.984 C668.296,35.984 669.612,35.088 669.808,33.94 C669.948,33.156 669.584,32.512 668.688,31.98 L667.26,31.308 C666.616,31 666.084,30.748 665.692,30.524 C665.328,30.3 664.908,29.992 664.46,29.628 C663.564,28.844 663.228,27.78 663.424,26.408 C663.788,24.028 665.944,22.488 668.632,22.488 C670.844,22.488 672.356,23.328 673.224,24.98 L671.376,26.464 C670.788,25.316 669.808,24.756 668.464,24.756 C667.092,24.756 666.196,25.512 665.972,26.436 C665.776,27.304 666.224,28.004 667.26,28.564 L668.464,29.124 C669.584,29.656 669.976,29.824 670.844,30.468 C672.076,31.28 672.524,32.288 672.356,34.024 C672.16,35.34 671.516,36.404 670.452,37.188 C669.388,37.944 668.1,38.336 666.588,38.336 Z" id="Fast-Requests" fill="#333537"></path>
                <path d="M910.416,166.642909 C910.248,168.070909 909.688,169.330909 908.708,170.422909 C907.756,171.514909 906.44,172.214909 904.76,172.522909 L909.212,181.090909 L905.768,181.090909 L901.624,172.690909 L898.796,172.690909 L897.536,181.090909 L894.736,181.090909 L897.816,160.398909 L904.648,160.398909 C909.128,160.426909 910.92,163.646909 910.416,166.642909 Z M907.56,166.502909 C907.812,164.486909 906.72,163.058909 904.452,163.058909 L900.224,163.058909 L899.188,170.058909 L902.548,170.058909 C905.768,170.058909 907.308,168.602909 907.56,166.502909 Z M920.58,165.718909 C922.736,165.718909 924.416,166.418909 925.564,167.790909 C926.712,169.162909 927.132,171.038909 926.768,173.418909 C926.684,173.922909 926.6,174.342909 926.516,174.678909 L914.56,174.678909 C914.588,177.170909 916.016,178.962909 919.068,178.962909 C920.832,178.962909 923.072,178.262909 924.556,177.254909 L925.536,179.354909 C923.884,180.502909 921.28,181.426909 918.816,181.426909 C913.244,181.426909 911.368,177.282909 911.956,173.306909 C912.264,171.066909 913.216,169.246909 914.812,167.846909 C916.408,166.418909 918.34,165.718909 920.58,165.718909 Z M920.44,168.098909 C917.892,168.098909 915.736,169.778909 914.924,172.354909 L924.192,172.354909 C924.416,169.750909 922.876,168.098909 920.44,168.098909 Z M942.588,168.378909 L942.952,166.082909 L945.528,166.082909 L943.288,181.090909 L940.684,181.090909 L941.02,178.850909 C939.396,180.586909 937.52,181.454909 935.392,181.454909 C933.124,181.454909 931.388,180.614909 930.24,178.962909 C929.092,177.310909 928.7,175.322909 929.064,173.054909 C929.4,170.898909 930.352,169.134909 931.92,167.762909 C933.516,166.390909 935.364,165.718909 937.464,165.718909 C939.704,165.718909 941.412,166.614909 942.588,168.378909 Z M936.036,178.990909 C937.52,178.990909 938.808,178.458909 939.9,177.422909 C940.992,176.358909 941.664,175.070909 941.888,173.558909 C942.112,172.102909 941.832,170.842909 941.02,169.778909 C940.208,168.714909 939.06,168.182909 937.576,168.182909 C936.148,168.182909 934.916,168.630909 933.88,169.554909 C932.844,170.450909 932.172,171.598909 931.864,172.998909 C931.528,174.538909 931.724,175.938909 932.48,177.170909 C933.236,178.374909 934.44,178.990909 936.036,178.990909 Z M953.284,159.894909 L950.12,181.090909 L947.432,181.090909 L950.596,159.894909 L953.284,159.894909 Z M965.828,174.594909 L955.048,174.594909 L955.412,172.074909 L966.192,172.074909 L965.828,174.594909 Z M971.148,181.090909 L973.836,163.114909 L967.704,163.114909 L968.096,160.398909 L983.16,160.398909 L982.768,163.114909 L976.636,163.114909 L973.948,181.090909 L971.148,181.090909 Z M986.604,163.954909 C985.456,163.954909 984.644,163.086909 984.84,161.938909 C984.98,160.902909 985.904,160.146909 986.996,160.146909 C988.088,160.146909 988.844,160.986909 988.704,162.134909 C988.508,163.170909 987.584,163.954909 986.604,163.954909 Z M987.472,166.082909 L985.232,181.090909 L982.544,181.090909 L984.812,166.082909 L987.472,166.082909 Z M1008.892,165.690909 C1010.74,165.690909 1012.14,166.306909 1013.064,167.510909 C1013.988,168.714909 1014.324,170.282909 1014.044,172.242909 L1012.728,181.090909 L1010.04,181.090909 L1011.3,172.550909 C1011.72,169.750909 1010.628,168.182909 1008.416,168.182909 C1006.036,168.182909 1004.104,170.002909 1003.684,172.718909 L1002.424,181.090909 L999.764,181.090909 L1001.024,172.606909 C1001.444,169.806909 1000.352,168.182909 998.112,168.182909 C995.732,168.182909 993.772,169.974909 993.296,173.110909 L992.092,181.090909 L989.404,181.090909 L991.672,166.082909 L994.276,166.082909 L993.968,168.266909 C995.06,166.670909 996.852,165.690909 998.84,165.690909 C1000.856,165.690909 1002.564,166.726909 1003.152,168.434909 C1004.384,166.754909 1006.54,165.690909 1008.892,165.690909 Z M1025.552,165.718909 C1027.708,165.718909 1029.388,166.418909 1030.536,167.790909 C1031.684,169.162909 1032.104,171.038909 1031.74,173.418909 C1031.656,173.922909 1031.572,174.342909 1031.488,174.678909 L1019.532,174.678909 C1019.56,177.170909 1020.988,178.962909 1024.04,178.962909 C1025.804,178.962909 1028.044,178.262909 1029.528,177.254909 L1030.508,179.354909 C1028.856,180.502909 1026.252,181.426909 1023.788,181.426909 C1018.216,181.426909 1016.34,177.282909 1016.928,173.306909 C1017.236,171.066909 1018.188,169.246909 1019.784,167.846909 C1021.38,166.418909 1023.312,165.718909 1025.552,165.718909 Z M1025.412,168.098909 C1022.864,168.098909 1020.708,169.778909 1019.896,172.354909 L1029.164,172.354909 C1029.388,169.750909 1027.848,168.098909 1025.412,168.098909 Z M1046.692,181.426909 C1043.64,181.426909 1041.12,179.914909 1040.084,177.086909 L1042.408,175.490909 C1043.248,177.646909 1044.732,178.738909 1046.832,178.738909 C1049.212,178.738909 1050.864,177.282909 1051.088,175.574909 C1051.256,174.510909 1050.696,173.558909 1049.436,172.718909 C1049.072,172.494909 1048.4,172.130909 1047.42,171.626909 C1046.44,171.094909 1045.712,170.702909 1045.292,170.422909 C1043.388,169.134909 1042.604,167.454909 1042.912,165.354909 C1043.136,163.814909 1043.864,162.526909 1045.124,161.546909 C1046.384,160.538909 1047.952,160.034909 1049.8,160.034909 C1052.348,160.034909 1054.252,161.070909 1055.54,163.114909 L1053.412,164.850909 C1052.46,163.394909 1051.2,162.666909 1049.604,162.666909 C1047.7,162.666909 1046.132,163.814909 1045.908,165.494909 C1045.768,166.586909 1046.188,167.454909 1047.224,168.154909 C1047.476,168.322909 1048.232,168.742909 1049.436,169.386909 C1050.64,170.030909 1051.452,170.478909 1051.872,170.758909 C1053.58,171.878909 1054.42,173.698909 1054.112,175.826909 C1053.86,177.534909 1053.048,178.906909 1051.648,179.914909 C1050.248,180.922909 1048.596,181.426909 1046.692,181.426909 Z M1062.484,177.338909 L1068.224,166.082909 L1071.22,166.082909 L1062.428,182.798909 C1060.636,186.158909 1058.844,187.474909 1056.632,187.474909 C1055.652,187.474909 1054.784,187.250909 1054.028,186.774909 L1054.728,184.534909 C1055.372,184.842909 1055.96,184.982909 1056.492,184.982909 C1057.752,184.982909 1058.9,184.086909 1059.936,182.294909 L1060.72,180.922909 L1056.436,166.082909 L1059.516,166.082909 L1062.484,177.338909 Z M1074.132,181.090909 L1071.444,181.090909 L1073.712,166.082909 L1076.316,166.082909 L1076.008,168.210909 C1077.156,166.530909 1078.864,165.690909 1081.104,165.690909 C1082.784,165.690909 1084.128,166.250909 1085.108,167.370909 C1086.088,168.462909 1086.424,170.142909 1086.088,172.354909 L1084.772,181.090909 L1082.112,181.090909 L1083.344,172.718909 C1083.792,169.722909 1082.532,168.182909 1080.264,168.182909 C1077.688,168.182909 1075.756,170.170909 1075.308,173.194909 L1074.132,181.090909 Z M1095.804,181.426909 C1093.48,181.426909 1091.716,180.670909 1090.456,179.130909 C1089.224,177.590909 1088.748,175.686909 1089.056,173.390909 C1089.364,171.010909 1090.316,169.162909 1091.94,167.790909 C1093.592,166.418909 1095.496,165.718909 1097.68,165.718909 C1100.704,165.718909 1103.084,167.118909 1104.176,169.694909 L1101.88,170.898909 C1101.096,169.078909 1099.696,168.182909 1097.708,168.182909 C1096.224,168.182909 1094.88,168.686909 1093.732,169.722909 C1092.584,170.730909 1091.912,172.046909 1091.716,173.642909 C1091.548,175.126909 1091.856,176.386909 1092.668,177.422909 C1093.48,178.458909 1094.572,178.962909 1096,178.962909 C1097.988,178.962909 1100.06,177.898909 1101.208,176.218909 L1103.168,177.702909 C1101.6,180.054909 1098.828,181.426909 1095.804,181.426909 Z" id="Real-Time-Sync" fill="#333537"></path>
                <path d="M966.308,253.308 L969.416,253.308 L962.332,266.552 L962.332,274 L959.532,274 L959.532,266.552 L952.532,253.308 L955.64,253.308 L960.932,263.78 L966.308,253.308 Z M976.668,274.364 C974.372,274.364 972.468,273.608 970.984,272.096 C969.5,270.556 968.772,268.68 968.772,266.468 C968.772,264.256 969.5,262.408 970.984,260.896 C972.468,259.356 974.372,258.6 976.668,258.6 C978.936,258.6 980.812,259.356 982.296,260.896 C983.78,262.436 984.536,264.284 984.536,266.468 C984.536,268.68 983.78,270.556 982.296,272.096 C980.812,273.608 978.936,274.364 976.668,274.364 Z M981.848,266.468 C981.848,264.984 981.344,263.724 980.336,262.688 C979.328,261.624 978.096,261.092 976.668,261.092 C975.24,261.092 974.008,261.624 973,262.688 C971.992,263.724 971.488,264.984 971.488,266.468 C971.488,267.952 971.992,269.24 973,270.304 C974.008,271.368 975.24,271.9 976.668,271.9 C978.096,271.9 979.328,271.368 980.336,270.304 C981.344,269.24 981.848,267.952 981.848,266.468 Z M994,274.364 C990.08,274.364 987.56,271.872 987.56,267.952 L987.56,258.992 L990.248,258.992 L990.248,267.868 C990.248,270.332 991.648,271.872 994,271.872 C996.38,271.872 997.78,270.332 997.78,267.868 L997.78,258.992 L1000.44,258.992 L1000.44,267.952 C1000.44,271.956 998.004,274.364 994,274.364 Z M1007.104,274 L1004.416,274 L1004.416,258.992 L1006.964,258.992 L1006.964,261.204 C1007.832,259.468 1009.288,258.6 1011.276,258.6 C1011.864,258.6 1012.452,258.684 1013.04,258.824 L1012.788,261.428 C1012.256,261.26 1011.724,261.176 1011.22,261.176 C1008.84,261.176 1007.104,262.828 1007.104,266.048 L1007.104,274 Z M966.616,302.66 C969.192,303.304 970.564,305.376 970.564,307.952 C970.564,309.66 969.948,311.116 968.744,312.264 C967.54,313.412 965.944,314 963.956,314 L954.184,314 L954.184,293.308 L963.48,293.308 C965.384,293.308 966.868,293.812 967.904,294.848 C968.94,295.856 969.472,297.06 969.472,298.432 C969.472,300.308 968.324,302.016 966.616,302.66 Z M962.668,297.284 L958.748,297.284 L958.748,301.344 L962.472,301.344 C964.04,301.344 964.88,300.392 964.88,299.272 C964.88,298.18 964.04,297.284 962.668,297.284 Z M958.748,309.996 L962.976,309.996 C964.796,309.996 965.776,308.876 965.776,307.56 C965.776,306.216 964.824,305.124 963.06,305.124 L958.748,305.124 L958.748,309.996 Z M984.788,300.28 L984.788,298.656 L988.932,298.656 L988.932,314 L984.788,314 L984.788,312.432 C983.472,313.748 981.904,314.392 980.056,314.392 C977.872,314.392 976.052,313.608 974.624,312.068 C973.196,310.5 972.496,308.568 972.496,306.244 C972.496,303.948 973.224,302.044 974.652,300.532 C976.08,299.02 977.9,298.264 980.056,298.264 C981.904,298.264 983.472,298.936 984.788,300.28 Z M976.892,306.3 C976.892,307.448 977.256,308.4 977.984,309.212 C978.74,309.996 979.664,310.388 980.812,310.388 C981.96,310.388 982.884,309.996 983.64,309.184 C984.396,308.372 984.788,307.42 984.788,306.3 C984.788,305.18 984.396,304.228 983.64,303.444 C982.884,302.66 981.96,302.268 980.812,302.268 C979.664,302.268 978.74,302.66 977.984,303.444 C977.256,304.228 976.892,305.18 976.892,306.3 Z M999.712,314.336 C997.304,314.336 995.344,313.58 993.832,312.096 C992.32,310.584 991.564,308.652 991.564,306.3 C991.564,303.948 992.32,302.016 993.86,300.532 C995.4,299.02 997.36,298.264 999.796,298.264 C1002.96,298.264 1005.76,299.832 1007.02,302.632 L1003.52,304.508 C1002.624,303.052 1001.42,302.324 999.88,302.324 C998.732,302.324 997.808,302.716 997.052,303.472 C996.296,304.228 995.932,305.18 995.932,306.3 C995.932,307.448 996.296,308.428 997.024,309.184 C997.78,309.94 998.704,310.304 999.824,310.304 C1001.364,310.304 1002.792,309.408 1003.436,308.148 L1006.992,310.248 C1005.648,312.74 1002.932,314.336 999.712,314.336 Z M1024.688,314 L1019.368,314 L1014.524,307.644 L1013.656,308.456 L1013.656,314 L1009.26,314 L1009.26,292.692 L1013.656,292.692 L1013.656,303.556 L1018.808,298.656 L1024.24,298.656 L1017.52,304.9 L1024.688,314 Z M1039.976,305.964 C1039.976,306.496 1039.92,307.112 1039.836,307.812 L1028.552,307.812 C1029.084,309.744 1030.484,310.696 1032.724,310.696 C1034.46,310.696 1036.056,310.192 1037.512,309.212 L1039.248,312.208 C1037.372,313.636 1035.132,314.336 1032.528,314.336 C1029.812,314.336 1027.74,313.552 1026.284,312.012 C1024.856,310.472 1024.128,308.568 1024.128,306.3 C1024.128,303.976 1024.884,302.072 1026.368,300.56 C1027.852,299.02 1029.812,298.264 1032.22,298.264 C1034.488,298.264 1036.336,298.964 1037.792,300.336 C1039.248,301.708 1039.976,303.584 1039.976,305.964 Z M1032.22,301.82 C1030.428,301.82 1029,302.884 1028.524,304.676 L1035.748,304.676 C1035.328,302.912 1034.04,301.82 1032.22,301.82 Z M1046.948,314 L1042.552,314 L1042.552,298.656 L1046.836,298.656 L1046.836,300.784 C1047.648,299.328 1049.468,298.236 1051.68,298.236 C1053.332,298.236 1054.76,298.796 1055.908,299.888 C1057.056,300.98 1057.644,302.576 1057.644,304.62 L1057.644,314 L1053.248,314 L1053.248,305.768 C1053.248,303.528 1052.072,302.268 1050.252,302.268 C1048.264,302.268 1046.948,303.724 1046.948,305.88 L1046.948,314 Z M1072.036,300.14 L1072.036,292.692 L1076.432,292.692 L1076.432,314 L1072.176,314 L1072.176,312.348 C1070.972,313.72 1069.46,314.392 1067.612,314.392 C1065.456,314.392 1063.664,313.636 1062.208,312.096 C1060.78,310.556 1060.052,308.652 1060.052,306.328 C1060.052,304.032 1060.78,302.128 1062.208,300.588 C1063.664,299.048 1065.456,298.264 1067.612,298.264 C1069.348,298.264 1070.832,298.88 1072.036,300.14 Z M1072.26,306.3 C1072.26,305.18 1071.896,304.228 1071.14,303.444 C1070.412,302.66 1069.488,302.268 1068.34,302.268 C1067.192,302.268 1066.268,302.66 1065.512,303.444 C1064.784,304.228 1064.42,305.18 1064.42,306.3 C1064.42,307.448 1064.784,308.428 1065.512,309.212 C1066.268,309.996 1067.192,310.388 1068.34,310.388 C1069.488,310.388 1070.412,309.996 1071.14,309.212 C1071.896,308.428 1072.26,307.448 1072.26,306.3 Z" id="Your-Backend" fill="#333537"></path>
                <path d="M959.568,51.364 C956.292,51.364 953.352,50.048 951.448,47.612 L953.968,44.308 C955.508,46.128 957.384,47.052 959.596,47.052 C961.164,47.052 962.312,46.324 962.312,45.176 C962.312,44.42 961.724,43.776 960.52,43.244 L958.672,42.572 C957.496,42.124 956.6,41.732 956.012,41.424 C953.8,40.22 952.68,38.456 952.68,36.188 C952.68,34.396 953.352,32.912 954.724,31.736 C956.096,30.56 957.888,29.972 960.044,29.972 C962.788,29.972 965.14,30.896 967.072,32.716 L964.776,36.16 C963.572,35.012 961.64,34.312 960.1,34.312 C958.532,34.312 957.636,35.012 957.636,36.02 C957.636,36.72 958.196,37.336 959.316,37.84 L961.332,38.652 C962.396,39.072 963.18,39.38 963.712,39.632 C966.204,40.752 967.436,42.516 967.436,44.896 C967.436,46.772 966.708,48.34 965.252,49.544 C963.824,50.748 961.92,51.364 959.568,51.364 Z M978.972,35.264 C981.156,35.264 982.948,36.048 984.376,37.616 C985.804,39.156 986.504,41.06 986.504,43.3 C986.504,45.568 985.776,47.472 984.348,49.04 C982.92,50.608 981.128,51.392 978.972,51.392 C977.152,51.392 975.612,50.748 974.352,49.432 L974.352,57.328 L969.956,57.328 L969.956,35.656 L974.296,35.656 L974.296,37.364 C975.556,35.964 977.124,35.264 978.972,35.264 Z M982.052,43.328 C982.052,42.208 981.688,41.256 980.96,40.5 C980.232,39.716 979.308,39.324 978.16,39.324 C977.04,39.324 976.116,39.716 975.388,40.5 C974.66,41.256 974.296,42.208 974.296,43.328 C974.296,45.596 975.892,47.36 978.16,47.36 C980.428,47.36 982.052,45.596 982.052,43.328 Z M1004.228,42.964 C1004.228,43.496 1004.172,44.112 1004.088,44.812 L992.804,44.812 C993.336,46.744 994.736,47.696 996.976,47.696 C998.712,47.696 1000.308,47.192 1001.764,46.212 L1003.5,49.208 C1001.624,50.636 999.384,51.336 996.78,51.336 C994.064,51.336 991.992,50.552 990.536,49.012 C989.108,47.472 988.38,45.568 988.38,43.3 C988.38,40.976 989.136,39.072 990.62,37.56 C992.104,36.02 994.064,35.264 996.472,35.264 C998.74,35.264 1000.588,35.964 1002.044,37.336 C1003.5,38.708 1004.228,40.584 1004.228,42.964 Z M996.472,38.82 C994.68,38.82 993.252,39.884 992.776,41.676 L1000,41.676 C999.58,39.912 998.292,38.82 996.472,38.82 Z M1021.924,42.964 C1021.924,43.496 1021.868,44.112 1021.784,44.812 L1010.5,44.812 C1011.032,46.744 1012.432,47.696 1014.672,47.696 C1016.408,47.696 1018.004,47.192 1019.46,46.212 L1021.196,49.208 C1019.32,50.636 1017.08,51.336 1014.476,51.336 C1011.76,51.336 1009.688,50.552 1008.232,49.012 C1006.804,47.472 1006.076,45.568 1006.076,43.3 C1006.076,40.976 1006.832,39.072 1008.316,37.56 C1009.8,36.02 1011.76,35.264 1014.168,35.264 C1016.436,35.264 1018.284,35.964 1019.74,37.336 C1021.196,38.708 1021.924,40.584 1021.924,42.964 Z M1014.168,38.82 C1012.376,38.82 1010.948,39.884 1010.472,41.676 L1017.696,41.676 C1017.276,39.912 1015.988,38.82 1014.168,38.82 Z M1035.728,37.14 L1035.728,29.692 L1040.124,29.692 L1040.124,51 L1035.868,51 L1035.868,49.348 C1034.664,50.72 1033.152,51.392 1031.304,51.392 C1029.148,51.392 1027.356,50.636 1025.9,49.096 C1024.472,47.556 1023.744,45.652 1023.744,43.328 C1023.744,41.032 1024.472,39.128 1025.9,37.588 C1027.356,36.048 1029.148,35.264 1031.304,35.264 C1033.04,35.264 1034.524,35.88 1035.728,37.14 Z M1035.952,43.3 C1035.952,42.18 1035.588,41.228 1034.832,40.444 C1034.104,39.66 1033.18,39.268 1032.032,39.268 C1030.884,39.268 1029.96,39.66 1029.204,40.444 C1028.476,41.228 1028.112,42.18 1028.112,43.3 C1028.112,44.448 1028.476,45.428 1029.204,46.212 C1029.96,46.996 1030.884,47.388 1032.032,47.388 C1033.18,47.388 1034.104,46.996 1034.832,46.212 C1035.588,45.428 1035.952,44.448 1035.952,43.3 Z M1068.88,51 L1063.196,51 L1057.988,43.132 L1055.552,46.072 L1055.552,51 L1050.932,51 L1050.932,30.308 L1055.552,30.308 L1055.552,39.548 L1062.804,30.308 L1068.404,30.308 L1061.012,39.604 L1068.88,51 Z M1072.52,34.088 C1071.036,34.088 1069.888,32.968 1069.888,31.484 C1069.888,30 1071.036,28.88 1072.52,28.88 C1073.976,28.88 1075.124,30 1075.124,31.484 C1075.124,32.968 1073.976,34.088 1072.52,34.088 Z M1074.676,35.656 L1074.676,51 L1070.28,51 L1070.28,35.656 L1074.676,35.656 Z M1088.228,46.632 L1089.46,50.132 C1088.144,50.972 1086.576,51.392 1084.756,51.392 C1081.088,51.392 1079.268,49.32 1079.268,45.204 L1079.268,39.296 L1076.832,39.296 L1076.832,35.656 L1079.296,35.656 L1079.296,30.224 L1083.664,30.224 L1083.664,35.656 L1088.592,35.656 L1088.592,39.296 L1083.664,39.296 L1083.664,44.784 C1083.664,46.52 1084.336,47.388 1085.708,47.388 C1086.408,47.388 1087.248,47.136 1088.228,46.632 Z M962.928,91.308 C959.96,91.308 957.44,90.328 955.368,88.34 C953.324,86.352 952.288,83.832 952.288,80.724 C952.288,77.588 953.324,75.012 955.424,72.996 C957.524,70.952 960.044,69.944 963.012,69.944 C964.888,69.944 966.624,70.364 968.22,71.204 C969.816,72.016 971.048,73.108 971.944,74.48 L969.872,76.216 C968.108,73.836 965.84,72.66 963.068,72.66 C960.856,72.66 959.008,73.416 957.468,74.956 C955.928,76.496 955.172,78.428 955.172,80.752 C955.172,83.048 955.928,84.924 957.412,86.408 C958.924,87.892 960.8,88.62 963.04,88.62 C965.84,88.62 968.304,87.276 969.984,85.12 L972,86.828 C970.068,89.516 966.736,91.308 962.928,91.308 Z M977.488,69.804 L977.488,91 L974.8,91 L974.8,69.804 L977.488,69.804 Z M988.632,91.364 C986.336,91.364 984.432,90.608 982.948,89.096 C981.464,87.556 980.736,85.68 980.736,83.468 C980.736,81.256 981.464,79.408 982.948,77.896 C984.432,76.356 986.336,75.6 988.632,75.6 C990.9,75.6 992.776,76.356 994.26,77.896 C995.744,79.436 996.5,81.284 996.5,83.468 C996.5,85.68 995.744,87.556 994.26,89.096 C992.776,90.608 990.9,91.364 988.632,91.364 Z M993.812,83.468 C993.812,81.984 993.308,80.724 992.3,79.688 C991.292,78.624 990.06,78.092 988.632,78.092 C987.204,78.092 985.972,78.624 984.964,79.688 C983.956,80.724 983.452,81.984 983.452,83.468 C983.452,84.952 983.956,86.24 984.964,87.304 C985.972,88.368 987.204,88.9 988.632,88.9 C990.06,88.9 991.292,88.368 992.3,87.304 C993.308,86.24 993.812,84.952 993.812,83.468 Z M1005.964,91.364 C1002.044,91.364 999.524,88.872 999.524,84.952 L999.524,75.992 L1002.212,75.992 L1002.212,84.868 C1002.212,87.332 1003.612,88.872 1005.964,88.872 C1008.344,88.872 1009.744,87.332 1009.744,84.868 L1009.744,75.992 L1012.404,75.992 L1012.404,84.952 C1012.404,88.956 1009.968,91.364 1005.964,91.364 Z M1028.224,78.176 L1028.224,69.804 L1030.912,69.804 L1030.912,91 L1028.224,91 L1028.224,88.9 C1026.908,90.552 1025.172,91.364 1023.016,91.364 C1020.832,91.364 1019.012,90.608 1017.584,89.096 C1016.156,87.556 1015.456,85.68 1015.456,83.468 C1015.456,81.284 1016.156,79.436 1017.584,77.924 C1019.012,76.384 1020.804,75.628 1022.96,75.628 C1025.116,75.628 1026.852,76.468 1028.224,78.176 Z M1028.42,83.468 C1028.42,81.984 1027.944,80.696 1026.992,79.66 C1026.068,78.624 1024.836,78.092 1023.296,78.092 C1021.756,78.092 1020.524,78.624 1019.572,79.66 C1018.648,80.696 1018.172,81.984 1018.172,83.468 C1018.172,85.008 1018.648,86.296 1019.572,87.332 C1020.524,88.368 1021.756,88.9 1023.296,88.9 C1024.836,88.9 1026.068,88.368 1026.992,87.332 C1027.944,86.296 1028.42,85.008 1028.42,83.468 Z" id="Speed-Kit-Cloud" fill="#333537"></path>
            </g>
        </g>
    </g>
</svg>