<?xml version="1.0" encoding="UTF-8" standalone="no"?>
<svg
   xmlns:dc="http://purl.org/dc/elements/1.1/"
   xmlns:cc="http://creativecommons.org/ns#"
   xmlns:rdf="http://www.w3.org/1999/02/22-rdf-syntax-ns#"
   xmlns:svg="http://www.w3.org/2000/svg"
   xmlns="http://www.w3.org/2000/svg"
   viewBox="0 0 320.41333 157.33333"
   height="157.33333"
   width="320.41333"
   xml:space="preserve"
   id="svg2"
   version="1.1"><metadata
     id="metadata8"><rdf:RDF><cc:Work
         rdf:about=""><dc:format>image/svg+xml</dc:format><dc:type
           rdf:resource="http://purl.org/dc/dcmitype/StillImage" /></cc:Work></rdf:RDF></metadata><defs
     id="defs6" /><g
     transform="matrix(1.3333333,0,0,-1.3333333,0,157.33333)"
     id="g10"><g
       transform="scale(0.1)"
       id="g12"><path
         id="path14"
         style="fill:#1e1a1c;fill-opacity:1;fill-rule:nonzero;stroke:none"
         d="m 131.008,470.02 c 7.996,-2.004 17,-2.004 29.004,-2.004 52.996,0 97,32.004 97,101.007 0,67.012 -46.004,102.008 -98.008,103.008 h -27.996 z m 0,299.019 h 27.996 c 47.004,0 83.008,40 83.008,95.004 0,49.004 -22.996,87.004 -77,87.004 -14.004,0 -26.008,-0.996 -34.004,-4 z M 0,1036.05 c 40,9 92.0039,13 149.004,13 63.008,0 124.004,-8 171.016,-48 35.996,-29.999 50.996,-75.003 50.996,-122.007 0,-60.004 -30.996,-118.008 -98.008,-147.008 v -4.004 c 78.008,-22 120.012,-86.996 120.012,-161.011 0,-55.997 -18,-99.004 -50,-132 -40,-44.004 -108.008,-68.008 -221.016,-68.008 -50.0001,0 -92.004,3 -122.004,7 v 662.038" /><path
         id="path16"
         style="fill:#1e1a1c;fill-opacity:1;fill-rule:nonzero;stroke:none"
         d="m 621.992,610.027 c -44.004,-0.996 -104.004,-15 -104.004,-83.007 0,-49.004 27,-67 47,-67 21.008,0 45,12.996 54.004,42 2.004,7.003 3,15 3,23 z M 640,372.012 632.996,420.02 h -2 c -27.004,-38.008 -65,-56.008 -108.008,-56.008 -74.004,0 -129.004,62.004 -129.004,149.015 0,128.008 113.008,181.004 224.012,182 v 11.004 c 0,38 -23.008,66.004 -69.004,66.004 -39.004,0 -71.004,-10 -100.008,-28.004 l -24.004,88.012 c 27,16 84.004,37 152.012,37 C 726.008,869.043 750,765.035 750,666.031 V 484.023 c 0,-39.003 2.004,-79.003 8.008,-112.011 H 640" /><path
         id="path18"
         style="fill:#560f16;fill-opacity:1;fill-rule:nonzero;stroke:none"
         d="m 1097.88,715.035 c 0,126.004 -20.9,205.008 -84.7,205.008 -59.407,0 -89.102,-81.004 -89.102,-208.012 -1.094,-137.004 25.301,-234.015 89.102,-234.015 60.5,0 84.7,97.011 84.7,237.019 z m 134.2,-453.023 c -63.8,23.996 -135.3,58 -190.3,88 -16.5,8.004 -28.6,14 -35.2,14 -144.107,0 -221.303,130.019 -221.303,350.019 0,181.02 143.782,332.659 234.873,465.959 70.84,-127.39 213.46,-304.978 213.46,-458.99 0,-167.008 -26.83,-270.98 -96.13,-304.984 v -5 c 47.3,-19.004 99,-34.004 145.2,-50 l -50.6,-99.004" /><path
         id="path20"
         style="fill:#1e1a1c;fill-opacity:1;fill-rule:nonzero;stroke:none"
         d="m 1493.08,662.031 c 0,63.004 -16,112.008 -55,112.008 -43,0 -60,-63.008 -61,-112.008 z m -117,-92.004 c 2,-76.004 46,-104.011 104,-104.011 37,0 70.01,8.007 93.01,16.004 l 18,-94.004 c -34.01,-13.004 -85,-22 -135.01,-22 -133.01,0 -206.01,88.007 -206.01,241.015 0,164.004 85,262.012 196.01,262.012 105.01,0 166.01,-83.008 166.01,-231.016 0,-35 -1,-54.004 -4,-68 h -232.01" /><path
         id="path22"
         style="fill:#1e1a1c;fill-opacity:1;fill-rule:nonzero;stroke:none"
         d="m 1636.06,714.031 c 0,54.004 -3.01,101.008 -4,147.008 h 113 l 6,-56 h 2 c 26.01,39 68.01,64.004 119.02,64.004 92.99,0 130,-74.004 130,-183.012 V 372.012 h -131.01 v 306.019 c 0,42.004 -10,81 -48,81 -22,0 -40.01,-15 -49,-43.996 -4.01,-10 -7,-26.004 -7,-45.008 V 372.012 h -131.01 v 342.019" /><path
         id="path24"
         style="fill:#1e1a1c;fill-opacity:1;fill-rule:nonzero;stroke:none"
         d="m 2268.07,673.031 c 0,9 0,19 -1,29 -5,30.004 -21,57 -47.01,57 -46,0 -62.99,-67 -62.99,-146.004 0,-93.007 25,-142.011 62,-142.011 15.99,0 35,9.004 45,43.007 3,7 4,17.997 4,30 z m 131.01,391.019 V 517.02 c 0,-47 2,-100 4,-145.008 h -113.01 l -7,55.008 h -2 c -18,-34.004 -57,-63.008 -102,-63.008 -104.02,0 -152.01,115.011 -152.01,252.011 0,170.012 74,253.02 157.01,253.02 43,0 70,-21 82,-49.004 h 2 v 244.011 h 131.01" /><path
         id="path26"
         style="fill:#560f16;fill-opacity:1;fill-rule:nonzero;stroke:none"
         d="m 934.781,405.09 c 1.121,-0.703 2.215,-1.457 3.379,-2.074 v -2.379 c -20.93,-9.074 -43.789,-16.235 -64.219,-23.871 l 22.372,-47.254 c 28.222,11.457 59.843,27.683 84.171,42 7.293,3.82 12.645,6.691 15.567,6.691 24.889,0 45.929,9.363 62.409,26.887 H 934.781" /><path
         id="path28"
         style="fill:#f68a21;fill-opacity:1;fill-rule:nonzero;stroke:none"
         d="m 997.555,184.871 c 3.175,-12.723 2.246,-30.281 6.715,-30.371 7.26,38.273 23.39,106.418 27.69,145.012 2.85,25.554 -10.48,40.527 -27.31,40.789 -17.4,0.273 -31.091,-15.789 -28.013,-42.149 4.422,-38.054 13.699,-75.547 20.918,-113.281 z M 1004.32,0 c -29.882,79.8594 -55.488,160.371 -59.336,245.605 -1.043,23.282 3.215,47.618 9.543,70.204 7.078,25.254 17.188,36.066 48.583,36.066 38.07,0 43.88,-11.184 49.76,-34.062 6.83,-26.614 11.9,-55.059 10.19,-82.227 C 1057.93,153.988 1033.05,76.6211 1004.32,0" /></g></g></svg>