<svg width="787" height="214.5" xmlns="http://www.w3.org/2000/svg" xmlns:xlink="http://www.w3.org/1999/xlink">
 <g>
  <title>background</title>
  <rect fill="none" id="canvas_background" height="402" width="582" y="-1" x="-1"/>
 </g>
 <g>
  <title>Layer 1</title>
  <g id="svg_1">
   <g id="svg_2">
    <defs>
     <path d="m515.5,172.5c0.3,-0.8 0.6,-1.7 0.8,-2.6l0,0c1.8,-5.9 -1.1,-8.9 -2.9,-11.9l0,0c-2,-3.4 3,-7.3 2.4,-1.2l0,0c-0.7,6.9 3.4,8.9 3.4,8.9l0,0c-4.9,-6.2 -0.6,-9.1 -1.2,-13.2l0,0c-0.3,-2.2 -2.2,-2.4 -3.3,-3.1l0,0c-0.3,-0.2 -0.6,-0.6 -0.6,-1.2l0,0c0,-0.8 0.8,-1.9 0.9,-2l0,0c0.1,-0.1 0.6,-0.5 0.7,0.3l0,0c0.1,0.7 0.3,0.9 0.3,0.9l0,0c0.1,0.1 0.2,0.2 0.3,0.3l0,0c1.7,1 3.7,2 2.8,7.6l0,0c-1,6.4 1.6,7 1.6,7l0,0c0,0 -1.6,-2.1 -0.7,-5.6l0,0c1,-3.5 0.7,-6.5 -1.2,-9.1l0,0c-2,-2.6 4.5,-5.9 2.9,0.1l0,0c-1.7,6.4 0.9,6.3 0.9,6.3l0,0c0,0 -1.9,-0.4 0,-5.2l0,0c2.9,-7.5 -3.3,-6.9 -2.6,-9.5l0,0c0.6,-2.3 3,-0.6 3.4,1.6l0,0c0.4,-5.6 -4.7,-2.7 -2.8,-8.2l0,0c2.4,-7 -0.5,-9.6 -0.5,-9.6l0,0c1.4,3.8 -0.3,9.4 -1.9,11.4l0,0c-1,1.3 -2.5,3.1 -4.6,2.2l0,0c-4.4,-1.9 0,-5.1 0,-5.1l-2.3,-2.6c-1.4,1.9 -1.9,3.6 -1,7.7l0,0c0.6,3 -3.6,1.4 -5.2,0.2l0,0c-3.7,-2.7 -3.4,-8.4 -3.4,-8.4l0,0c-0.6,2.4 -0.1,7.6 3.3,10.5l0,0c2.2,1.9 1.2,4.4 0.2,7l0,0c-0.8,2 -1.7,4.1 -0.9,5.9l0,0c0.2,-3.6 2,-6.1 3.1,-6.5l0,0c0.8,-0.3 1.3,0.5 0.5,2.8l0,0c-2.7,8 2.7,9.2 2.7,9.2l0,0c-1.5,-1 -2.5,-2.5 -1.9,-6.1l0,0c0.7,-3.1 1.3,-4.2 1.8,-4.3l0,0c1.4,-0.1 -0.2,3.6 -0.2,3.6l0,0c0,0 2.5,-2.4 1.1,-5.6l0,0c-0.4,-1 -0.2,-2 0.4,-2.2l0,0c0.6,-0.2 1.2,0.3 1.4,1.1l0,0c0.3,1.5 -0.6,4.2 -1.9,5.9l0,0c-2.9,3.6 -1.3,5.3 -0.8,5.6l0,0c0.9,1.2 0.8,2.8 0.5,4.1l0,0c-2.4,5.6 1.9,7 1.9,7l0,0c-2.8,-1.4 -2.5,-7.1 0.2,-4.3l0,0c1.9,2 1.4,5.8 0.9,7.8l0,0c0,0.1 -0.1,0.2 -0.1,0.4l0,0c-4,11.3 2.5,12.9 2.5,12.9l0,0c-3.6,-2.8 -2.4,-6.2 -0.9,-10.8" id="SVGID_1_"/>
     <linearGradient y2="0.658921" x2="0.560686" y1="-0.086126" x1="0.506794" id="SVGID_5_">
      <stop stop-color="#FFFF00" offset="0"/>
      <stop stop-color="#F15A24" offset="1"/>
     </linearGradient>
     <linearGradient y2="1.124415" x2="0.288577" y1="0.272089" x1="0.576703" id="SVGID_10_">
      <stop stop-color="#FFFF00" offset="0"/>
      <stop stop-color="#F8AB12" offset="0.4695"/>
      <stop stop-color="#F3711F" offset="0.8285"/>
      <stop stop-color="#F15A24" offset="1"/>
     </linearGradient>
    </defs>
    <clipPath id="SVGID_2_">
     <use id="svg_3" xlink:href="#SVGID_1_"/>
    </clipPath>
    <g id="svg_4" clip-path="url(#SVGID_2_)">
     <g id="svg_5">
      <defs>
       <polygon points="534,111 537.4,177.6 487.1,187.4 483.8,120.8      " id="SVGID_3_"/>
      </defs>
      <clipPath id="SVGID_4_">
       <use id="svg_6" xlink:href="#SVGID_3_"/>
      </clipPath>
      <polygon id="svg_7" points="534,111 537.4,177.6 487.1,187.4 483.8,120.8     " fill="url(#SVGID_5_)" clip-path="url(#SVGID_4_)"/>
     </g>
    </g>
   </g>
   <g id="svg_8">
    <defs>
     <path d="m519.9,139.2c0.6,-2.3 3.3,-0.8 3.5,0.2l0,0c0.1,-1.6 -2.1,-1.7 -3.1,-3.4l0,0c-1.1,-1.8 2.4,-6.7 0.8,-10.9l0,0c0.7,3.1 -1.5,12.1 -6.2,12.4l0,0c-4,0.3 -4.2,-5.5 -4,-7l0,0c-0.6,0.7 -0.4,2.3 -0.2,3.8l0,0c0.3,2.1 0.5,4.3 -1.2,4.7l0,0c-1.8,0.3 -6.1,-1.5 -7.6,-6.3l0,0c0.3,5.9 6.9,6.3 4.4,10.7l0,0c-0.3,0.6 -0.9,2.3 -1.1,3.5l0,0c0,0 2.3,-6.2 3.1,-3.1l0,0c0.8,3.1 7.2,-7.4 5.9,-0.6l0,0c0.4,-0.7 2.4,-4 2.4,-0.9l0,0c0,2.7 1.3,3.9 1.3,3.9l0,0c0.1,-4.7 3.4,-3.5 4.2,-2.8l0,0c0,-1 -3,-1.4 -2.2,-4.2" id="SVGID_6_"/>
    </defs>
    <clipPath id="SVGID_7_">
     <use id="svg_9" xlink:href="#SVGID_6_"/>
    </clipPath>
    <g id="svg_10" clip-path="url(#SVGID_7_)">
     <g id="svg_11">
      <defs>
       <polygon points="527.5,127.1 519.6,151.3 498.1,145 506,120.9      " id="SVGID_8_"/>
      </defs>
      <clipPath id="SVGID_9_">
       <use id="svg_12" xlink:href="#SVGID_8_"/>
      </clipPath>
      <polygon id="svg_13" points="527.5,127.1 519.6,151.3 498.1,145 506,120.9     " fill="url(#SVGID_10_)" clip-path="url(#SVGID_9_)"/>
     </g>
    </g>
   </g>
  </g>
  <g id="svg_14">
   <path id="svg_15" d="m412,72.4c4,-0.9 9.2,-1.3 14.9,-1.3c6.3,0 12.4,0.8 17.1,4.8c3.6,3 5.1,7.5 5.1,12.2c0,6 -3.1,11.8 -9.8,14.7l0,0.4c7.8,2.2 12,8.7 12,16.1c0,5.6 -1.8,9.9 -5,13.2c-4,4.4 -10.8,6.8 -22.1,6.8c-5,0 -9.2,-0.3 -12.2,-0.7l0,-66.2zm13.1,26.7l2.8,0c4.7,0 8.3,-4 8.3,-9.5c0,-4.9 -2.3,-8.7 -7.7,-8.7c-1.4,0 -2.6,0.1 -3.4,0.4l0,17.8zm0,29.9c0.8,0.2 1.7,0.2 2.9,0.2c5.3,0 9.7,-3.2 9.7,-10.1c0,-6.7 -4.6,-10.2 -9.8,-10.3l-2.8,0l0,20.2z" fill="#272223"/>
   <path id="svg_16" d="m476,138.8l-0.7,-4.8l-0.2,0c-2.7,3.8 -6.5,5.6 -10.8,5.6c-7.4,0 -12.9,-6.2 -12.9,-14.9c0,-12.8 11.3,-18.1 22.4,-18.2l0,-1.1c0,-3.8 -2.3,-6.6 -6.9,-6.6c-3.9,0 -7.1,1 -10,2.8l-2.4,-8.8c2.7,-1.6 8.4,-3.7 15.2,-3.7c14.9,0 17.3,10.4 17.3,20.3l0,18.2c0,3.9 0.2,7.9 0.8,11.2l-11.8,0zm-1.8,-23.8c-4.4,0.1 -10.4,1.5 -10.4,8.3c0,4.9 2.7,6.7 4.7,6.7c2.1,0 4.5,-1.3 5.4,-4.2c0.2,-0.7 0.3,-1.5 0.3,-2.3l0,-8.5z" fill="#272223"/>
   <path id="svg_17" d="m535.2,149.8c-6.4,-2.4 -13.5,-5.8 -19,-8.8c-1.7,-0.8 -2.9,-1.4 -3.5,-1.4c-14.4,0 -22.1,-13 -22.1,-35c0,-18.1 14.4,-33.3 23.5,-46.6c7.1,12.7 21.3,30.5 21.3,45.9c0,16.7 -2.7,27.1 -9.6,30.5l0,0.5c4.7,1.9 9.9,3.4 14.5,5l-5.1,9.9zm-13.4,-45.3c0,-12.6 -2.1,-20.5 -8.5,-20.5c-5.9,0 -8.9,8.1 -8.9,20.8c-0.1,13.7 2.5,23.4 8.9,23.4c6,0 8.5,-9.7 8.5,-23.7z" fill="#600C0C"/>
   <path id="svg_18" d="m549.6,119c0.2,7.6 4.6,10.4 10.4,10.4c3.7,0 7,-0.8 9.3,-1.6l1.8,9.4c-3.4,1.3 -8.5,2.2 -13.5,2.2c-13.3,0 -20.6,-8.8 -20.6,-24.1c0,-16.4 8.5,-26.2 19.6,-26.2c10.5,0 16.6,8.3 16.6,23.1c0,3.5 -0.1,5.4 -0.4,6.8l-23.2,0zm11.7,-9.2c0,-6.3 -1.6,-11.2 -5.5,-11.2c-4.3,0 -6,6.3 -6.1,11.2l11.6,0z" fill="#272223"/>
   <path id="svg_19" d="m575.6,104.6c0,-5.4 -0.3,-10.1 -0.4,-14.7l11.3,0l0.6,5.6l0.2,0c2.6,-3.9 6.8,-6.4 11.9,-6.4c9.3,0 13,7.4 13,18.3l0,31.4l-13.1,0l0,-30.6c0,-4.2 -1,-8.1 -4.8,-8.1c-2.2,0 -4,1.5 -4.9,4.4c-0.4,1 -0.7,2.6 -0.7,4.5l0,29.8l-13.1,0l0,-34.2z" fill="#272223"/>
   <path id="svg_20" d="m651.9,69.6l0,54.7c0,4.7 0.2,10 0.4,14.5l-11.3,0l-0.7,-5.5l-0.2,0c-1.8,3.4 -5.7,6.3 -10.2,6.3c-10.4,0 -15.2,-11.5 -15.2,-25.2c0,-17 7.4,-25.3 15.7,-25.3c4.3,0 7,2.1 8.2,4.9l0.2,0l0,-24.4l13.1,0zm-13.1,39.1c0,-0.9 0,-1.9 -0.1,-2.9c-0.5,-3 -2.1,-5.7 -4.7,-5.7c-4.6,0 -6.3,6.7 -6.3,14.6c0,9.3 2.5,14.2 6.2,14.2c1.6,0 3.5,-0.9 4.5,-4.3c0.3,-0.7 0.4,-1.8 0.4,-3l0,-12.9z" fill="#272223"/>
  </g>
  <g id="svg_21">
   <g id="svg_22">
    <path id="svg_23" d="m505.5,135.5c0.1,0.1 0.2,0.1 0.3,0.2l0,0.2c-2.1,0.9 -4.4,1.6 -6.4,2.4l2.2,4.7c2.8,-1.1 6,-2.8 8.4,-4.2c0.7,-0.4 1.3,-0.7 1.6,-0.7c2.5,0 4.6,-0.9 6.2,-2.7l-12.3,0l0,0.1z" fill="#600C0C"/>
   </g>
  </g>
  <g id="svg_24">
   <path id="svg_25" d="m368,89l0,16.1l15.6,0l0,5.9l-15.6,0l0,16.3l-6,0l0,-16.3l-15.6,0l0,-5.9l15.6,0l0,-16.1l6,0z"/>
  </g>
  <defs>
   <linearGradient id="svg_48">
    <stop stop-color="#070135" offset="0" id="svg_50"/>
    <stop stop-color="#612d50" offset="1" id="svg_49"/>
   </linearGradient>
   <linearGradient xlink:href="#svg_48" id="svg_46" y2="0.055685" x2="0.938462" y1="0.948146" x1="0.057692"/>
  </defs>
  <metadata transform="matrix(0.0012675509185112177,0,0,0.0012675509185112177,0,0) " id="svg_47">image/svg+xml</metadata>
  <g stroke="null" id="svg_52">
   <g stroke="null" transform="matrix(0.01980299996948841,0,0,0.01980299996948841,-5.054489084777515,-8.42272818382503) " id="svg_42">
    <rect fill="url(#svg_46)" id="svg_45" y="5776.899112" x="255.23856" ry="20.679518" height="128.54576" width="128.01605"/>
    <g font-size="109.796501px" font-style="normal" font-weight="normal" text-anchor="middle" fill="#ffffff" font-family="Sans" id="svg_43" transform="translate(0,5351.5732421875) scale(1.0052013397216797,0.9948256015777588) ">
     <path stroke="null" fill="#ffffff" id="svg_44" d="m318.55641,483.16526c3.25239,0.00005 5.71852,-0.71477 7.3984,-2.14446c1.67978,-1.42959 2.51969,-3.53831 2.51974,-6.32617c-0.00005,-2.752 -0.83996,-4.84285 -2.51974,-6.27255c-1.67988,-1.46532 -4.14601,-2.19801 -7.3984,-2.19808l-11.41926,0l0,16.94126l11.41926,0m0.69695,35.00836c4.14592,0.00001 7.25538,-0.87564 9.32841,-2.62697c2.10867,-1.75129 3.16303,-4.39613 3.16309,-7.93451c-0.00006,-3.46686 -1.03655,-6.05808 -3.10947,-7.77368c-2.07303,-1.75128 -5.20037,-2.62693 -9.38203,-2.62697l-12.11621,0l0,20.96213l12.11621,0m19.19294,-28.78942c4.43183,1.28672 7.86296,3.6635 10.29343,7.13034c2.43031,3.46692 3.64551,7.7201 3.64558,12.75956c-0.00007,7.72008 -2.60917,13.47438 -7.82729,17.26292c-5.21825,3.78855 -13.15276,5.68283 -23.80353,5.68283l-34.2578,0l0,-80.04208l30.98749,0c11.11541,0.00008 19.15714,1.67991 24.12521,5.03949c5.00367,3.35973 7.50554,8.73875 7.50562,16.13708c-0.00008,3.89583 -0.91147,7.21975 -2.73419,9.97175c-1.82286,2.71637 -4.4677,4.73574 -7.93452,6.05811"/>
    </g>
   </g>
  </g>
  <defs>
   <linearGradient id="svg_71">
    <stop stop-color="#070135" offset="0" id="svg_73"/>
    <stop stop-color="#612d50" offset="1" id="svg_72"/>
   </linearGradient>
   <linearGradient xlink:href="#svg_71" id="svg_69" y2="0.055685" x2="0.938462" y1="0.948146" x1="0.057692"/>
  </defs>
  <metadata transform="matrix(0.0012675509185112177,0,0,0.0012675509185112177,0,0) " id="svg_70">image/svg+xml</metadata>
  <g stroke="null" id="svg_75">
   <g stroke="null" transform="matrix(1.1602879882139578,0,0,1.1602879882139578,-16607.939383717734,-6596.889803606068) " id="svg_65">
    <rect fill="url(#svg_69)" id="svg_68" y="5712.25999" x="14464.660549" ry="20.679518" height="128.54576" width="128.01605"/>
    <g font-size="109.796501px" font-style="normal" font-weight="normal" text-anchor="middle" fill="#ffffff" font-family="Sans" id="svg_66" transform="translate(0,5351.5732421875) scale(1.0052013397216797,0.9948256015777588) ">
     <path stroke="null" fill="#ffffff" id="svg_67" d="m14454.452944,418.189933c3.25239,0.00005 5.71852,-0.71477 7.3984,-2.14446c1.67978,-1.42959 2.51969,-3.53831 2.51974,-6.32617c-0.00005,-2.752 -0.83996,-4.84285 -2.51974,-6.27255c-1.67988,-1.46532 -4.14601,-2.19801 -7.3984,-2.19808l-11.41926,0l0,16.94126l11.41926,0m0.69695,35.00836c4.14592,0.00001 7.25538,-0.87564 9.32841,-2.62697c2.10867,-1.75129 3.16303,-4.39613 3.16309,-7.93451c-0.00006,-3.46686 -1.03655,-6.05808 -3.10947,-7.77368c-2.07303,-1.75128 -5.20037,-2.62693 -9.38203,-2.62697l-12.11621,0l0,20.96213l12.11621,0m19.19294,-28.78942c4.43183,1.28672 7.86296,3.6635 10.29343,7.13034c2.43031,3.46692 3.64551,7.7201 3.64558,12.75956c-0.00007,7.72008 -2.60917,13.47438 -7.82729,17.26292c-5.21825,3.78855 -13.15276,5.68283 -23.80353,5.68283l-34.2578,0l0,-80.04208l30.98749,0c11.11541,0.00008 19.15714,1.67991 24.12521,5.03949c5.00367,3.35973 7.50554,8.73875 7.50562,16.13708c-0.00008,3.89583 -0.91147,7.21975 -2.73419,9.97175c-1.82286,2.71637 -4.4677,4.73574 -7.93452,6.05811"/>
    </g>
   </g>
  </g>
 </g>
</svg>